<svg width="98" height="104" viewBox="0 0 98 104" fill="none" xmlns="http://www.w3.org/2000/svg">
  <path
    d="M78.6656 92.7261L79.3725 90.4776L80.0262 88.2464L80.6269 86.0324L81.1746 83.8357L81.6692 81.6562L82.1107 79.4939L82.4991 77.3489L82.8345 75.2211L83.1168 73.1106L83.346 71.0173L83.5222 68.9412L83.6453 66.8824L83.7153 64.8409L83.7323 62.8166L83.6962 60.8095L83.607 58.8196L83.4647 56.847L83.2694 54.8917L83.0211 52.9536L82.7196 51.0327L82.3651 49.1291L81.9575 47.2427L81.4969 45.3736L80.9832 43.5217L80.4164 41.6871L79.7966 39.8697L79.1236 38.0695L78.3977 36.2866L77.6186 34.5209L76.7865 32.7724L75.9013 31.0413L74.9631 29.3273L73.9717 27.6306L72.9274 25.9511L71.8299 24.2889L70.6794 22.6439L69.4758 21.0162L68.2191 19.4057L66.9094 17.8124L65.5466 16.2364L64.1308 14.6777L62.6618 13.1361L61.1398 11.6119L59.5648 10.1048L57.9367 8.61502L56.2555 7.14247L54.5212 5.68716L52.7339 4.24909L50.8935 2.82827L49 1.42468L47.1065 2.82827L45.2661 4.24909L43.4788 5.68716L41.7445 7.14247L40.0633 8.61502L38.4352 10.1048L36.8601 11.6119L35.3382 13.1361L33.8692 14.6777L32.4534 16.2364L31.0906 17.8124L29.7809 19.4057L28.5242 21.0162L27.3206 22.6439L26.1701 24.2889L25.0726 25.9511L24.0283 27.6306L23.0369 29.3273L22.0987 31.0413L21.2135 32.7724L20.3814 34.5209L19.6023 36.2866L18.8763 38.0695L18.2034 39.8697L17.5836 41.6871L17.0168 43.5217L16.5031 45.3736L16.0425 47.2427L15.6349 49.1291L15.2804 51.0327L14.9789 52.9536L14.7305 54.8917L14.5352 56.8471L14.393 58.8196L14.3038 60.8095L14.2677 62.8166L14.2847 64.8409L14.3547 66.8824L14.4778 68.9412L14.654 71.0173L14.8832 73.1106L15.1655 75.2211L15.5009 77.3489L15.8893 79.4939L16.3308 81.6562L16.8254 83.8357L17.373 86.0324L17.9737 88.2464L18.6275 90.4776L19.3344 92.7261L21.6912 92.7035L24.0153 92.6358L26.3065 92.523L28.565 92.365L30.7906 92.1618L32.9835 91.9135L35.1436 91.6201L37.2708 91.2816L39.3653 90.8979L41.427 90.469L43.4559 89.995L45.4519 89.4759L47.4152 88.9116L49.3457 88.3022L51.2434 87.6476L53.1083 86.9479L54.9404 86.2031L56.7397 85.4131L58.5062 84.578L60.2399 83.6977L61.9408 82.7723L63.6089 81.8018L65.2442 80.7861L66.8467 79.7252L68.4164 78.6193L69.9533 77.4681L71.4574 76.2719L72.9287 75.0305L74.3673 73.7439L75.773 72.4122L77.1459 71.0354L78.4861 69.6134L79.7934 68.1463L81.0679 66.6341L82.3097 65.0767L83.5186 63.4741L84.6947 61.8265L85.8381 60.1336L86.9486 58.3957L88.0264 56.6126L89.0713 54.7843L90.0835 52.9109L91.0628 50.9924L92.0094 49.0287L92.9231 47.0199L93.8041 44.966L94.6523 42.8669L95.4677 40.7226L96.2502 38.5332L97 36.2987L95.08 34.9317L93.16 33.6204L91.24 32.3649L89.32 31.1653L87.4 30.0214L85.48 28.9333L83.56 27.9011L81.64 26.9246L79.72 26.0039L77.8 25.139L75.88 24.33L73.96 23.5767L72.04 22.8792L70.12 22.2375L68.2 21.6516L66.28 21.1215L64.36 20.6473L62.44 20.2288L60.52 19.8661L58.6 19.5592L56.68 19.3081L54.76 19.1128L52.84 18.9733L50.92 18.8896L49 18.8617L47.08 18.8896L45.16 18.9733L43.24 19.1128L41.32 19.3081L39.4 19.5592L37.48 19.8661L35.56 20.2288L33.64 20.6473L31.72 21.1215L29.8 21.6516L27.88 22.2375L25.96 22.8792L24.04 23.5767L22.12 24.33L20.2 25.139L18.28 26.0039L16.36 26.9246L14.44 27.9011L12.52 28.9333L10.6 30.0214L8.68 31.1653L6.75999 32.3649L4.84 33.6204L2.91999 34.9317L1 36.2987L1.74977 38.5333L2.53234 40.7226L3.34771 42.8669L4.19588 44.966L5.07684 47.0199L5.9906 49.0287L6.93715 50.9924L7.91652 52.9109L8.92867 54.7843L9.97362 56.6126L11.0514 58.3957L12.1619 60.1336L13.3053 61.8265L14.4814 63.4742L15.6903 65.0767L16.9321 66.6341L18.2066 68.1463L19.5139 69.6135L20.8541 71.0354L22.227 72.4122L23.6327 73.7439L25.0712 75.0305L26.5426 76.2719L28.0467 77.4681L29.5836 78.6193L31.1533 79.7252L32.7558 80.7861L34.3911 81.8018L36.0592 82.7723L37.7601 83.6977L39.4938 84.578L41.2603 85.4131L43.0596 86.2031L44.8917 86.9479L46.7566 87.6476L48.6543 88.3022L50.5848 88.9116L52.548 89.4759L54.5441 89.995L56.573 90.469L58.6347 90.8979L60.7291 91.2816L62.8564 91.6201L65.0165 91.9136L67.2093 92.1618L69.435 92.365L71.6935 92.523L73.9847 92.6358L76.3088 92.7035L78.6656 92.7261Z"
    stroke="black" stroke-miterlimit="10" stroke-linecap="round" stroke-linejoin="round" />
  <path
    d="M78.6656 11.2739L75.1552 11.341L71.7443 11.5398L68.4343 11.8665L65.2263 12.3174L62.1215 12.8887L59.1212 13.5768L56.2267 14.3778L53.439 15.2881L50.7594 16.3038L48.1892 17.4213L45.7296 18.6368L43.3817 19.9465L41.1468 21.3468L39.0261 22.8338L37.0208 24.4038L35.1321 26.0531L33.3614 27.778L31.7096 29.5746L30.1782 31.4393L28.7683 33.3683L27.481 35.3578L26.3177 37.4042L25.2796 39.5037L24.3678 41.6525L23.5836 43.8468L22.9282 46.0831L22.4028 48.3574L22.0087 50.6661L21.747 53.0054L21.6189 55.3716L21.6258 57.761L21.7687 60.1697L22.0489 62.5941L22.4677 65.0303L23.0262 67.4748L23.7257 69.9236L24.5673 72.3731L25.5523 74.8196L26.682 77.2592L27.9575 79.6883L29.38 82.1031L30.9507 84.4999L32.671 86.8749L34.5419 89.2243L36.5647 91.5445L38.7407 93.8316L41.071 96.0821L43.5568 98.292L46.1994 100.458L49 102.575L51.8006 100.458L54.4432 98.292L56.9291 96.0821L59.2594 93.8316L61.4353 91.5445L63.4582 89.2243L65.3291 86.8749L67.0493 84.4999L68.6201 82.1031L70.0426 79.6883L71.3181 77.2592L72.4477 74.8196L73.4328 72.3731L74.2744 69.9236L74.9739 67.4748L75.5324 65.0303L75.9511 62.5941L76.2314 60.1697L76.3743 57.761L76.3811 55.3716L76.2531 53.0054L75.9914 50.6661L75.5972 48.3574L75.0718 46.0831L74.4164 43.8468L73.6322 41.6525L72.7205 39.5037L71.6823 37.4042L70.519 35.3578L69.2318 33.3683L67.8219 31.4393L66.2904 29.5746L64.6387 27.778L62.8679 26.0531L60.9793 24.4038L58.974 22.8338L56.8533 21.3468L54.6184 19.9465L52.2705 18.6368L49.8108 17.4213L47.2406 16.3038L44.5611 15.2881L41.7734 14.3779L38.8788 13.5768L35.8785 12.8887L32.7738 12.3174L29.5658 11.8665L26.2557 11.5398L22.8449 11.341L19.3344 11.2739L18.3134 14.6333L17.4484 17.9386L16.7363 21.1876L16.1738 24.378L15.7578 27.5073L15.485 30.5734L15.3524 33.5738L15.3567 36.5063L15.4947 39.3686L15.7632 42.1584L16.1591 44.8732L16.6792 47.5109L17.3203 50.0692L18.0792 52.5456L18.9527 54.9379L19.9377 57.2438L21.0309 59.4609L22.2292 61.587L23.5294 63.6197L24.9282 65.5567L26.4227 67.3957L28.0094 69.1344L29.6853 70.7705L31.4472 72.3017L33.2918 73.7256L35.2161 75.04L37.2167 76.2425L39.2907 77.3307L41.4346 78.3025L43.6454 79.1555L45.9199 79.8874L48.2549 80.4958L50.6472 80.9784L53.0937 81.333L55.5911 81.5572L58.1362 81.6487L60.7259 81.6052L63.357 81.4244L66.0264 81.1039L68.7307 80.6415L71.4669 80.0348L74.2317 79.2816L77.022 78.3794L79.8347 77.3261L82.6664 76.1192L85.514 74.7566L88.3744 73.2357L91.2443 71.5545L94.1206 69.7104L97 67.7013L95.8514 64.3833L94.6084 61.2009L93.2748 58.1538L91.8546 55.2421L90.3518 52.4659L88.7703 49.8251L87.114 47.3197L85.3868 44.9498L83.5928 42.7152L81.7357 40.6161L79.8197 38.6525L77.8485 36.8242L75.8262 35.1314L73.7566 33.574L71.6438 32.152L69.4916 30.8655L67.3039 29.7144L65.0848 28.6987L62.8382 27.8184L60.5679 27.0736L58.2779 26.4641L55.9722 25.9902L53.6547 25.6516L51.3293 25.4485L49 25.3807L46.6707 25.4485L44.3453 25.6516L42.0278 25.9902L39.7221 26.4642L37.4322 27.0736L35.1619 27.8184L32.9152 28.6987L30.6961 29.7144L28.5085 30.8655L26.3563 32.152L24.2434 33.574L22.1739 35.1314L20.1516 36.8242L18.1804 38.6525L16.2643 40.6161L14.4073 42.7152L12.6132 44.9498L10.8861 47.3197L9.22978 49.8251L7.64825 52.4659L6.14544 55.2421L4.72527 58.1538L3.39169 61.2008L2.14863 64.3833L1.00003 67.7013L3.8795 69.7104L6.75578 71.5545L9.6257 73.2357L12.4861 74.7566L15.3337 76.1192L18.1654 77.3261L20.978 78.3794L23.7683 79.2816L26.5332 80.0348L29.2694 80.6415L31.9737 81.1039L34.643 81.4244L37.2741 81.6052L39.8639 81.6487L42.409 81.5572L44.9064 81.333L47.3528 80.9784L49.7451 80.4958L52.0801 79.8874L54.3546 79.1555L56.5654 78.3025L58.7094 77.3307L60.7833 76.2425L62.784 75.04L64.7082 73.7256L66.5529 72.3017L68.3148 70.7705L69.9906 69.1344L71.5774 67.3957L73.0718 65.5567L74.4707 63.6197L75.7709 61.587L76.9692 59.4609L78.0624 57.2438L79.0473 54.9379L79.9209 52.5456L80.6797 50.0692L81.3208 47.511L81.8409 44.8732L82.2368 42.1584L82.5054 39.3686L82.6434 36.5063L82.6477 33.5738L82.515 30.5734L82.2423 27.5073L81.8262 24.378L81.2638 21.1876L80.5516 17.9386L79.6866 14.6333L78.6656 11.2739Z"
    stroke="black" stroke-miterlimit="10" stroke-linecap="round" stroke-linejoin="round" />
</svg>