<svg width="32" height="33" viewBox="0 0 32 33" fill="none" xmlns="http://www.w3.org/2000/svg">
  <path
    d="M16 2.19995C8.26875 2.19995 2 8.6312 2 16.5562C2 22.9 6.0125 28.275 11.575 30.1749C11.653 30.1919 11.7327 30.2003 11.8125 30.1999C12.3313 30.1999 12.5312 29.8187 12.5312 29.4874C12.5312 29.1437 12.5187 28.2437 12.5125 27.0437C12.0494 27.1523 11.5756 27.2089 11.1 27.2125C8.40625 27.2125 7.79375 25.1187 7.79375 25.1187C7.15625 23.4625 6.2375 23.0187 6.2375 23.0187C5.01875 22.1625 6.23125 22.1374 6.325 22.1374H6.33125C7.7375 22.2624 8.475 23.6249 8.475 23.6249C9.175 24.8499 10.1125 25.1937 10.95 25.1937C11.5038 25.1826 12.049 25.0548 12.55 24.8187C12.675 23.8937 13.0375 23.2625 13.4375 22.9C10.3312 22.5375 7.0625 21.3062 7.0625 15.8062C7.0625 14.2375 7.60625 12.9562 8.5 11.9562C8.35625 11.5937 7.875 10.1312 8.6375 8.1562C8.73978 8.13173 8.8449 8.12122 8.95 8.12495C9.45625 8.12495 10.6 8.3187 12.4875 9.6312C14.781 8.98952 17.2065 8.98952 19.5 9.6312C21.3875 8.3187 22.5313 8.12495 23.0375 8.12495C23.1426 8.12122 23.2477 8.13173 23.35 8.1562C24.1125 10.1312 23.6312 11.5937 23.4875 11.9562C24.3812 12.9625 24.925 14.2437 24.925 15.8062C24.925 21.3187 21.65 22.5312 18.5312 22.8874C19.0312 23.3312 19.4813 24.2062 19.4813 25.5437C19.4813 27.4624 19.4625 29.0124 19.4625 29.4812C19.4625 29.8187 19.6562 30.1999 20.175 30.1999C20.259 30.2003 20.3428 30.1919 20.425 30.1749C25.9937 28.275 30 22.8937 30 16.5562C30 8.6312 23.7312 2.19995 16 2.19995Z"
    fill="black" />
</svg>