<svg width="96" height="102" viewBox="0 0 96 102" fill="none" xmlns="http://www.w3.org/2000/svg">
<path d="M47.7052 0.522045C47.8803 0.392229 48.1197 0.392229 48.2948 0.522045L50.1688 1.91163L50.1765 1.91743L51.9974 3.32442L52.0061 3.33022L53.7748 4.75461L53.7825 4.76042L55.499 6.20222L57.1701 7.66722L57.1788 7.67399L58.7899 9.14964L58.7977 9.15641L60.3566 10.6495L60.3653 10.6572L61.3975 11.6919L63.9694 11.219L63.9897 11.2152L67.1646 10.7684C67.1712 10.7675 67.1782 10.7671 67.1849 10.7665L70.4613 10.4425L70.4806 10.4416L73.8566 10.2443C73.863 10.2439 73.8695 10.2434 73.8759 10.2433L77.3505 10.1776L77.4316 10.1824C77.6187 10.2098 77.7764 10.3431 77.8327 10.5286L78.8437 13.8551L78.8485 13.8734L79.7048 17.1467L79.7097 17.1661L80.4142 20.3833L80.4181 20.4026L80.9748 23.5618C80.976 23.5687 80.9778 23.5762 80.9787 23.5831L81.3169 26.1302L82.4284 26.6949L82.4381 26.7007L84.3382 27.7228L84.3479 27.7277L86.248 28.8059L86.2577 28.8107L88.1578 29.9431L88.1665 29.9489L90.0666 31.1373L90.0753 31.1422L91.9754 32.3857L91.9841 32.3915L93.8843 33.6892L93.892 33.6951L95.7921 35.0489C95.9696 35.1753 96.0431 35.4031 95.9738 35.6097L95.2325 37.8222L95.2286 37.8319L94.4545 39.9989L94.4516 40.0086L93.6446 42.1321L93.6407 42.1418L92.8008 44.2199L92.797 44.2296L91.9252 46.2632L91.0167 48.2629L91.0118 48.2726L90.0753 50.2173L90.0695 50.2269L89.4635 51.4144L90.8475 53.9741C90.8509 53.9802 90.8541 53.9871 90.8572 53.9934L92.2634 56.876L92.2712 56.8944L93.5914 59.9124L93.5991 59.9308L94.8295 63.0813L94.8363 63.0997L95.9728 66.3855C96.0451 66.5947 95.9697 66.8265 95.7882 66.9532L92.9381 68.9423C92.9328 68.946 92.928 68.9504 92.9226 68.9539L90.0753 70.7796C90.0698 70.7831 90.0645 70.7869 90.0589 70.7902L87.2184 72.4544C87.2125 72.4579 87.2069 72.4619 87.201 72.4651L84.3701 73.9707C84.3639 73.974 84.3571 73.9773 84.3508 73.9804L81.7954 75.2027L81.6427 76.1774L81.6407 76.189L81.2541 78.3232L80.8173 80.4641L80.8153 80.4748L80.3253 82.6331L80.3234 82.6437L79.7812 84.8185L79.7783 84.8282L79.1839 87.0214L79.181 87.0301L78.5344 89.2397L78.5315 89.2493L77.8318 91.4754C77.7665 91.6832 77.573 91.8245 77.3553 91.8225L75.0222 91.8003L75.0125 91.7993L72.7123 91.7326H72.7026L70.4352 91.6204H70.4246L68.19 91.4638L65.9661 91.2607L63.7954 91.0141L63.7848 91.0131L61.6469 90.7221L61.6353 90.7211L60.6098 90.5567L58.5125 92.7634C58.5077 92.7685 58.5021 92.7731 58.4971 92.7779L56.191 95.0059C56.1862 95.0106 56.1816 95.0159 56.1765 95.0204L53.7158 97.2087C53.7109 97.2131 53.7054 97.2171 53.7004 97.2213L51.085 99.3661C51.0803 99.37 51.0755 99.374 51.0705 99.3777L48.2986 101.475C48.1221 101.609 47.8779 101.609 47.7014 101.475L44.9295 99.3777C44.9245 99.374 44.9197 99.37 44.915 99.3661L42.2996 97.2213C42.2945 97.2171 42.2891 97.2131 42.2842 97.2087L39.8235 95.0204C39.8184 95.0159 39.8138 95.0106 39.809 95.0059L37.5029 92.7779C37.498 92.7732 37.4931 92.7683 37.4884 92.7634L35.3892 90.5567L34.3637 90.7211L34.3531 90.723L32.2152 91.0131L32.2046 91.0141L30.0339 91.2607L27.81 91.4638L25.5754 91.6194L25.5648 91.6204L23.2974 91.7326H23.2877L20.9875 91.7993L20.9778 91.8003L18.6447 91.8225C18.427 91.8245 18.2335 91.6832 18.1682 91.4754L17.4685 89.2493L17.4656 89.2397L16.819 87.0301L16.8161 87.0214L16.2217 84.8282L16.2188 84.8185L15.6766 82.6437L15.6747 82.6331L15.1847 80.4748L15.1827 80.4641L14.7459 78.3232L14.3593 76.189L14.3573 76.1774L14.2037 75.2027L11.6492 73.9804C11.6429 73.9773 11.6361 73.974 11.6299 73.9707L8.79904 72.4651C8.79306 72.4619 8.78748 72.4579 8.78164 72.4544L5.94112 70.7902C5.93551 70.7869 5.93016 70.7831 5.92469 70.7796L3.0774 68.9539C3.07198 68.9504 3.06721 68.946 3.06194 68.9423L0.211748 66.9532C0.0303481 66.8265 -0.0450931 66.5947 0.0271477 66.3855L1.16374 63.0997C1.16585 63.0936 1.16817 63.0873 1.17051 63.0813L2.40085 59.9308L2.40859 59.9124L3.72882 56.8944L3.73655 56.876L5.1428 53.9934L5.15246 53.9741L6.53648 51.4154L5.93049 50.2269L5.92469 50.2173L4.98816 48.2726L4.98332 48.2629L4.07482 46.2632L3.20304 44.2296L3.19918 44.2199L2.3593 42.1418L2.35543 42.1321L1.54937 40.0086L1.54551 39.9989L0.771347 37.8319L0.767481 37.8222L0.0261812 35.6097C-0.0431203 35.4031 0.0304343 35.1753 0.207882 35.0489L2.10801 33.6951L2.11574 33.6892L4.01586 32.3915L4.02456 32.3857L5.92469 31.1422L5.93339 31.1373L7.83351 29.9489L7.84221 29.9431L9.74234 28.8107L9.752 28.8049L11.6521 27.7277L11.6618 27.7228L13.5619 26.7007L13.5716 26.6949L14.6821 26.1302L15.0213 23.5831L15.0252 23.5618L15.5819 20.4026L15.5858 20.3833L16.2903 17.1661L16.2952 17.1467L17.1515 13.8734L17.1563 13.8551L18.1673 10.5286L18.1972 10.4522C18.2811 10.283 18.456 10.1739 18.6495 10.1776L22.1241 10.2433L22.1434 10.2443L25.5194 10.4416L25.5387 10.4425L28.8151 10.7665L28.8354 10.7684L32.0103 11.2152L32.0306 11.219L34.6015 11.6919L35.6347 10.6572L35.6434 10.6495L37.2023 9.15737L37.2101 9.14964L38.8212 7.67399L38.8289 7.66722L40.501 6.20222L42.2175 4.76138L42.2252 4.75461L43.9949 3.33022L44.0026 3.32442L45.8235 1.91743L45.8312 1.91163L47.7052 0.522045ZM46.5802 88.0222L46.5686 88.0261L44.625 88.585L44.6134 88.5879L42.6379 89.1023L42.6253 89.1052L40.6179 89.5742L40.6063 89.5771L38.5651 90.0017L38.5535 90.0036L36.5741 90.3662L38.1901 92.0652L40.4874 94.2855L42.9269 96.4554L45.5267 98.5877L48 100.459L50.4733 98.5877L53.0731 96.4554L55.5116 94.2855L57.8099 92.0652L59.4249 90.3662L57.4465 90.0036L57.4349 90.0017L55.3937 89.5771L55.3821 89.5742L53.3747 89.1052L53.3621 89.1023L51.3866 88.5879L51.375 88.585L49.4314 88.0261L49.4198 88.0222L48 87.5735L46.5802 88.0222ZM15.3335 76.012L15.7153 78.1249L16.1502 80.2562L16.6402 82.4146L17.1795 84.5787L17.7681 86.7516L18.4127 88.9525L19.0023 90.8284L20.9585 90.8101L23.2587 90.7424L25.5165 90.6312L27.7413 90.4755L29.9217 90.2763L32.0819 90.0316L34.2197 89.7415L34.6189 89.6777L33.318 88.1847C33.3132 88.1792 33.308 88.1739 33.3035 88.1682L31.4527 85.8416C31.448 85.8357 31.4426 85.8293 31.4382 85.8232L29.7362 83.4715C29.7317 83.4653 29.7268 83.4595 29.7226 83.4531L28.1685 81.0791C28.1643 81.0727 28.1599 81.0664 28.156 81.0598L27.3006 79.6073L25.6576 79.2438C25.6499 79.2421 25.642 79.24 25.6344 79.238L22.8982 78.4914C22.8909 78.4894 22.8833 78.488 22.876 78.4856L20.1147 77.5921C20.1076 77.5898 20.1005 77.587 20.0935 77.5844L17.31 76.542C17.3032 76.5394 17.2963 76.5361 17.2897 76.5332L15.2803 75.6765L15.3335 76.012ZM78.7103 76.5332C78.7037 76.5361 78.6968 76.5394 78.69 76.542L75.9065 77.5844C75.8995 77.587 75.8924 77.5898 75.8853 77.5921L73.124 78.4856C73.1167 78.488 73.1091 78.4894 73.1018 78.4914L70.3656 79.238C70.358 79.24 70.3501 79.242 70.3424 79.2438L68.6984 79.6073L67.844 81.0598C67.8401 81.0664 67.8357 81.0727 67.8315 81.0791L66.2773 83.4531C66.2732 83.4595 66.2683 83.4653 66.2638 83.4715L64.5618 85.8232C64.5575 85.8293 64.5529 85.8358 64.5483 85.8416L62.6965 88.1682C62.6919 88.1739 62.6868 88.1792 62.682 88.1847L61.3811 89.6767L61.7909 89.7425L63.9181 90.0316L66.0773 90.2763L68.2587 90.4755L70.4826 90.6312L72.7403 90.7424L75.0415 90.8101L76.9967 90.8284L77.5872 88.9525L78.2319 86.7516L78.8205 84.5787L79.3598 82.4146L79.8498 80.2562L80.2847 78.1249L80.6665 76.012L80.7187 75.6765L78.7103 76.5332ZM29.0016 80.5453L30.5509 82.9097L32.2268 85.2247L34.0641 87.5339L35.7719 89.494L36.3054 89.4089L38.3641 89.0318L40.4043 88.6072L42.4001 88.1402L44.3515 87.6325L46.2825 87.0774L46.4063 87.0378L45.6186 86.7661L45.606 86.7622L43.76 86.0689L43.7474 86.064L41.9343 85.3262L41.9217 85.3214L40.1414 84.5391L40.1289 84.5333L38.3805 83.7065L38.3679 83.7007L36.6524 82.8284C36.6483 82.8263 36.6439 82.8239 36.6398 82.8217L34.9562 81.9059C34.9521 81.9037 34.9477 81.9015 34.9436 81.8991L33.2929 80.9379C33.2888 80.9356 33.2844 80.9327 33.2803 80.9302L32.568 80.4873L31.0902 80.3104C31.0821 80.3094 31.0741 80.3079 31.0661 80.3065L28.6141 79.8868L29.0016 80.5453ZM64.9339 80.3065C64.9259 80.3079 64.9178 80.3094 64.9098 80.3104L63.431 80.4873L62.7197 80.9302C62.7156 80.9327 62.7112 80.9356 62.7071 80.9379L61.0564 81.8991C61.0523 81.9015 61.0479 81.9037 61.0438 81.9059L59.3602 82.8217C59.3561 82.8239 59.3517 82.8263 59.3476 82.8284L57.6321 83.7007L57.6195 83.7065L55.8711 84.5333L55.8586 84.5391L54.0783 85.3214L54.0657 85.3272L52.2526 86.064L52.24 86.0689L50.394 86.7622L50.3814 86.767L49.5928 87.0378L49.7175 87.0774L51.6485 87.6325L53.5989 88.1402L55.5947 88.6072L57.6359 89.0318L59.6936 89.4089L60.2281 89.494L61.9359 87.5339L63.7732 85.2247L65.4491 82.9097L66.9974 80.5453L67.3849 79.8868L64.9339 80.3065ZM46.4681 80.1798C46.4593 80.1816 46.45 80.1834 46.441 80.1846L44.02 80.5357C44.0111 80.537 44.0018 80.5378 43.9929 80.5386L41.5216 80.761C41.5128 80.7618 41.5034 80.7616 41.4945 80.7619L38.9759 80.8528C38.9672 80.8532 38.9585 80.853 38.9498 80.8528L36.3866 80.8103C36.3782 80.8102 36.3698 80.8099 36.3615 80.8093L34.8625 80.7049L35.4414 81.0424L37.0999 81.9456L38.8154 82.8168L40.5387 83.632L42.3199 84.4143L44.107 85.1415L45.9414 85.83L47.8057 86.474L48 86.535L48.1933 86.474L50.0586 85.83L51.8921 85.1415L53.6801 84.4143L55.4613 83.632L57.1962 82.811L58.9001 81.9456L60.5586 81.0424L61.1366 80.7049L59.6385 80.8093C59.6302 80.8099 59.6218 80.8102 59.6134 80.8103L57.0502 80.8528C57.0416 80.853 57.0328 80.8532 57.0241 80.8528L54.5055 80.7619C54.4966 80.7616 54.4872 80.7618 54.4784 80.761L52.0071 80.5386C51.9982 80.5378 51.9889 80.537 51.98 80.5357L49.559 80.1846C49.5502 80.1834 49.5415 80.1816 49.5329 80.1798L48 79.8704L46.4681 80.1798ZM38.9652 79.8617L41.451 79.7727L43.8876 79.5532L45.6263 79.3008L44.827 79.0929C44.818 79.0906 44.8088 79.088 44.7999 79.0852L42.549 78.3609C42.5401 78.358 42.5315 78.3545 42.5229 78.3512L40.3347 77.507C40.326 77.5036 40.3172 77.4993 40.3086 77.4954L38.1862 76.5332C38.1777 76.5294 38.1694 76.525 38.1611 76.5207L36.1083 75.4434C36.0998 75.439 36.0913 75.4339 36.0831 75.4289L34.1038 74.2386C34.0956 74.2336 34.0865 74.2285 34.0786 74.2231L32.1746 72.9215C32.1667 72.9161 32.159 72.91 32.1514 72.9041L30.3257 71.4942C30.3183 71.4884 30.3106 71.483 30.3035 71.4768L28.56 69.9605C28.5528 69.9543 28.5455 69.9478 28.5387 69.9412L26.8802 68.3205C26.8734 68.3139 26.8663 68.3072 26.8599 68.3002L25.2903 66.578C25.284 66.571 25.2769 66.564 25.271 66.5567L23.7922 64.7358C23.7864 64.7286 23.7803 64.7212 23.7748 64.7136L22.3908 62.795C22.3855 62.7877 22.3802 62.7804 22.3754 62.7728L21.9298 62.0756L22.2285 63.8143L22.7745 66.2047L23.4588 68.6009L24.2784 70.9885L25.2526 73.4089L25.6605 74.2898L26.0935 74.6553L27.5596 75.8225L29.0809 76.9616L30.6205 78.0476L32.1969 79.091L32.9043 79.53L33.8438 79.6431L36.4185 79.8201L38.9652 79.8617ZM73.6246 62.7728C73.6198 62.7804 73.6144 62.7877 73.6092 62.795L72.2251 64.7136C72.2197 64.7212 72.2136 64.7286 72.2077 64.7358L70.729 66.5567C70.7231 66.564 70.716 66.571 70.7097 66.578L69.1401 68.3002C69.1337 68.3072 69.1266 68.3139 69.1198 68.3205L67.4613 69.9412C67.4545 69.9478 67.4472 69.9543 67.44 69.9605L65.6965 71.4768C65.6894 71.483 65.6817 71.4884 65.6743 71.4942L63.8486 72.9041C63.841 72.91 63.8333 72.9161 63.8254 72.9215L61.9214 74.2231C61.9135 74.2284 61.9053 74.2337 61.8972 74.2386L59.9169 75.4289C59.9087 75.4339 59.9002 75.439 59.8917 75.4434L57.8389 76.5207C57.8306 76.525 57.8223 76.5294 57.8138 76.5332L55.6914 77.4954C55.6828 77.4993 55.674 77.5036 55.6653 77.507L53.4771 78.3512C53.4685 78.3545 53.4598 78.358 53.451 78.3609L51.2001 79.0852C51.1912 79.088 51.182 79.0906 51.173 79.0929L50.3727 79.3008L52.1115 79.5532L54.548 79.7727L57.0338 79.8626L59.5805 79.8201L62.1543 79.6431L63.0947 79.53L63.8031 79.091L65.3785 78.0476L66.9191 76.9616L68.4404 75.8225L69.9065 74.6553L70.3386 74.2898L70.757 73.3876L71.7216 70.9885L72.5402 68.6009L73.2245 66.2047L73.7764 63.792L74.0702 62.0756L73.6246 62.7728ZM27.6012 78.1655L27.9356 78.7341L28.5658 78.8734L30.6012 79.2225L30.0638 78.8666C30.0599 78.864 30.0561 78.8607 30.0522 78.8579L28.4991 77.7633C28.4952 77.7606 28.4912 77.7574 28.4875 77.7546L26.9662 76.6145C26.9624 76.6116 26.9583 76.6087 26.9546 76.6058L26.6598 76.3708L27.6012 78.1655ZM69.0454 76.6058C69.0417 76.6087 69.0376 76.6116 69.0338 76.6145L67.5125 77.7546C67.5087 77.7574 67.5048 77.7606 67.5009 77.7633L65.9478 78.8579C65.9439 78.8607 65.9401 78.864 65.9362 78.8666L65.3978 79.2225L67.4333 78.8734L68.0634 78.7341L68.3988 78.1655L69.3392 76.3708L69.0454 76.6058ZM45.7181 25.2019L43.4584 25.3991L41.1872 25.7318L38.9246 26.1969L36.6969 26.7897L34.473 27.5207L32.2742 28.3814L31.6943 28.6473L31.2526 29.1289L29.77 30.9352L28.3879 32.8247L27.1334 34.7655L25.9891 36.7759L24.9801 38.8192L24.088 40.9205L23.3138 43.0856L22.6721 45.2797L22.1627 47.4864L21.7771 49.7492L21.52 52.0507L21.3963 54.3386L21.4021 56.6904L21.5413 59.0324L21.6157 59.6803L21.9288 60.2373L23.1979 62.2226L24.5722 64.1256L26.0306 65.9214L27.579 67.6194L29.2133 69.2169L30.9404 70.7177L32.7381 72.1073L34.6257 73.3963L36.5761 74.5702L38.6105 75.6378L40.6933 76.5835L42.8583 77.42L45.0918 78.1385L47.3805 78.7351L48 78.8599L48.6186 78.7351L50.9072 78.1385L53.1408 77.42L55.3057 76.5835L57.3953 75.6349L59.423 74.5702L61.3734 73.3963L63.2609 72.1073L65.0586 70.7177L66.7857 69.2169L68.4201 67.6194L69.9684 65.9214L71.4268 64.1256L72.8012 62.2226L74.0702 60.2373L74.3833 59.6803L74.4587 59.0324L74.5969 56.6904L74.6037 54.3386L74.48 52.0507L74.2219 49.7492L73.8363 47.4864L73.3279 45.2797L72.6852 43.0856L71.912 40.9205L71.0199 38.8192L70.0099 36.7759L68.8666 34.7655L67.6111 32.8247L66.23 30.9352L64.7474 29.1289L64.3047 28.6473L63.7248 28.3814L61.5261 27.5207L59.3022 26.7897L57.0744 26.1969L54.8099 25.7318L52.5406 25.3991L50.2809 25.2019L48 25.1361L45.7181 25.2019ZM14.1379 63.7108L14.2066 65.7193L14.3264 67.7335L14.5004 69.7768L14.7256 71.8375L15.003 73.9165L15.0977 74.5219L17.6743 75.6204L20.4424 76.657L23.166 77.538L25.8818 78.2787L26.6299 78.444L25.4739 76.2422C25.4702 76.235 25.4667 76.2273 25.4633 76.2199L24.8544 74.9058L23.9991 74.1834C23.9955 74.1804 23.9919 74.1769 23.9884 74.1738L22.5648 72.9002C22.5614 72.8972 22.5575 72.8937 22.5542 72.8906L21.1624 71.5716C21.1591 71.5684 21.156 71.5651 21.1528 71.5619L19.7939 70.1984L19.7842 70.1887L18.4582 68.7798L18.4485 68.7702L17.1544 67.3177L17.1457 67.3071L15.8844 65.8092L15.8757 65.7995L14.6473 64.2572L14.6386 64.2465L14.136 63.5803L14.1379 63.7108ZM81.3614 64.2465L81.3537 64.2572L80.1243 65.7995L80.1156 65.8102L80.1146 65.8092L78.8543 67.3071L78.8456 67.3177L77.5515 68.7702L77.5418 68.7808L77.5409 68.7798L76.2158 70.1887L76.2061 70.1984L74.8472 71.5619C74.844 71.5651 74.8409 71.5684 74.8376 71.5716L73.4458 72.8906C73.4425 72.8937 73.4386 72.8972 73.4352 72.9002L72.0116 74.1738C72.0081 74.1769 72.0045 74.1804 72.0009 74.1834L71.1446 74.9058L70.5367 76.2199C70.5333 76.2273 70.5298 76.235 70.5261 76.2422L69.3692 78.444L70.1221 78.2777L72.8331 77.538L75.576 76.6503L78.3247 75.6204L80.9014 74.5219L80.997 73.9165L81.2744 71.8375L81.4996 69.7768L81.6736 67.7335L81.7934 65.7193L81.862 63.7108L81.863 63.5803L81.3614 64.2465ZM6.03197 54.4276L4.63539 57.2918L3.32289 60.2905L2.09254 63.442L1.08449 66.3546L3.62637 68.129L6.44176 69.9354L9.26392 71.5899L12.0764 73.0869L14.0181 74.0161L13.7446 71.969L13.7427 71.9574L13.5165 69.8851L13.5146 69.8725L13.3406 67.8167L13.3396 67.8051L13.2178 65.7657L13.2169 65.7531L13.1483 63.7321L13.1473 63.7185L13.1347 62.2294L12.2707 61.0177L12.263 61.0071L11.1322 59.3312L11.1244 59.3206L10.0255 57.5993L10.0188 57.5887L8.95271 55.823L8.94595 55.8133L7.9118 54.0021L7.906 53.9924L7.08738 52.4762L6.03197 54.4276ZM88.093 53.9924L88.0882 54.0021L87.054 55.8123L87.0473 55.823L85.9812 57.5887L85.9745 57.5993L84.8756 59.3206L84.8688 59.3312L83.737 61.0071L83.7293 61.0177L82.8643 62.2294L82.8517 63.7185V63.7321L82.7821 65.7531V65.7657L82.6604 67.8051L82.6594 67.8167L82.4845 69.8725L82.4835 69.8851L82.2573 71.9574L82.2554 71.969L81.9809 74.0161L83.9236 73.0869L86.7361 71.5899L89.5582 69.9354L92.3727 68.129L94.9145 66.3546L93.9075 63.442L92.6771 60.2905L91.3646 57.2918L89.9777 54.446L88.9116 52.4762L88.093 53.9924ZM15.463 48.261L15.462 48.26L15.116 50.1176L15.117 50.1186L14.8184 52.0207L14.5758 53.9112L14.5767 53.9122L14.3834 55.8481L14.2433 57.7879L14.1563 59.7451L14.1206 61.7188L14.1215 61.9073L14.2327 62.063L15.4292 63.6499L16.6412 65.171L17.8937 66.6582L19.1782 68.101L20.5042 69.5089L21.8438 70.8531L23.2239 72.1614L23.9421 72.8045L23.3602 71.3579C23.3571 71.3502 23.3542 71.3425 23.3515 71.3346L22.5184 68.9084C22.5157 68.9004 22.513 68.8924 22.5107 68.8843L21.8187 66.459C21.8162 66.4505 21.8139 66.4415 21.8119 66.4329L21.2591 64.0125C21.2571 64.0038 21.2548 63.9952 21.2533 63.9864L20.8386 61.5737C20.8371 61.5648 20.8358 61.5556 20.8348 61.5466L20.655 59.9927L19.8886 58.6302C19.8841 58.6223 19.879 58.6141 19.875 58.606L18.7935 56.4109C18.7896 56.4029 18.7855 56.3949 18.7819 56.3867L17.8077 54.1036C17.8042 54.0955 17.8011 54.0868 17.7981 54.0785L16.933 51.7093C16.9301 51.7014 16.9278 51.6933 16.9253 51.6852L16.1734 49.2328C16.1709 49.2247 16.1687 49.216 16.1666 49.2077L15.6785 47.2592L15.463 48.261ZM79.8334 49.2077C79.8313 49.216 79.8291 49.2247 79.8266 49.2328L79.0747 51.6852C79.0722 51.6933 79.0698 51.7014 79.067 51.7093L78.2019 54.0785C78.1989 54.0868 78.1957 54.0955 78.1923 54.1036L77.218 56.3867C77.2145 56.3949 77.2104 56.4029 77.2065 56.4109L76.1249 58.606C76.1209 58.6141 76.1158 58.6223 76.1114 58.6302L75.344 59.9907L75.1652 61.5466C75.1642 61.5556 75.1629 61.5648 75.1614 61.5737L74.7467 63.9864C74.7452 63.9952 74.7429 64.0038 74.7409 64.0125L74.1881 66.4329C74.1861 66.4415 74.1847 66.4505 74.1823 66.459L73.4893 68.8843C73.487 68.8924 73.4843 68.9004 73.4816 68.9084L72.6485 71.3346C72.6458 71.3425 72.6429 71.3502 72.6398 71.3579L72.057 72.8045L72.776 72.1614L74.1562 70.8531L75.4948 69.5089L76.8218 68.101L78.1063 66.6582L79.3588 65.171L80.5708 63.6499L81.7673 62.063L81.8775 61.9073L81.8794 61.7188L81.8437 59.7451L81.7567 57.7879L81.6166 55.8481L81.4233 53.9122L81.1816 52.0207L80.883 50.1186L80.537 48.26L80.3205 47.2592L79.8334 49.2077ZM14.135 42.1341L12.3886 44.3098L10.6789 46.6567L9.06386 49.0994L9.06482 49.1004L7.66148 51.4424L7.78132 51.6765L8.77101 53.5109L9.80612 55.3211L10.8664 57.0762L11.9517 58.7762L13.0835 60.453L13.1512 60.5477L13.1666 59.7142V59.7006L13.2555 57.7309L13.3976 55.7504L13.5919 53.8135L13.5928 53.8L13.8393 51.8815L13.8403 51.867L14.1389 49.9649C14.1396 49.9603 14.141 49.9559 14.1418 49.9513L14.4926 48.0666L14.4955 48.0521L14.8986 46.1849L14.9015 46.1703L15.1963 44.9722L15.0126 44.0381C15.0111 44.0301 15.009 44.022 15.0078 44.0139L14.6492 41.5519L14.135 42.1341ZM80.9922 44.0139C80.991 44.022 80.9889 44.0301 80.9874 44.0381L80.8028 44.9722L81.0985 46.1703L81.1014 46.1849L81.5044 48.0521C81.5054 48.0568 81.5065 48.062 81.5073 48.0666L81.8582 49.9513L81.8611 49.9649L82.1588 51.867L82.1617 51.8805L82.1607 51.8815L82.4072 53.8L82.4091 53.8135L82.6014 55.7504L82.6033 55.764L82.7445 57.7309L82.8324 59.7006L82.8334 59.7142L82.8479 60.5477L82.9165 60.453L84.0483 58.7762L85.1336 57.0762L86.1939 55.3211L87.229 53.5109L88.2187 51.6765L88.3376 51.4424L86.941 49.1091L85.3211 46.6567L83.6114 44.3098L81.8572 42.1244L81.3498 41.551L80.9922 44.0139ZM27.9675 30.5001L25.8663 31.7572L23.7816 33.1603L21.7539 34.6862L19.7726 36.3466L18.6447 37.3938L17.9846 39.1615L17.3796 40.9331L16.8229 42.7356L16.8238 42.7365L16.3155 44.5709L16.3145 44.57L16.2091 44.9964L16.4962 46.4527L17.1244 48.9553L17.8686 51.3864L18.7269 53.7371L19.6866 55.9854L20.4627 57.5597L20.4144 56.7339C20.4138 56.7246 20.4134 56.7151 20.4134 56.7058L20.4066 54.3396C20.4066 54.3302 20.4071 54.3209 20.4076 54.3115L20.5342 51.9685L20.5361 51.9404L20.7952 49.6235C20.7962 49.6141 20.7974 49.6048 20.799 49.5955L21.1895 47.3095L21.1953 47.2814L21.7153 45.0293L21.722 45.0012L22.3705 42.7868C22.3732 42.7777 22.376 42.7687 22.3792 42.7597L23.166 40.5598L24.0687 38.4324L24.0803 38.4063L25.1076 36.3272C25.1118 36.3187 25.1165 36.3103 25.1212 36.3021L26.2723 34.2762L26.2877 34.2511L27.5616 32.2813L27.577 32.2581L28.9726 30.3483L28.99 30.326L29.5149 29.6859L27.9675 30.5001ZM67.0099 30.326L67.0273 30.3483L68.423 32.2581L68.4384 32.2813L69.7123 34.2511C69.7174 34.259 69.7231 34.268 69.7277 34.2762L70.8788 36.3021L70.8924 36.3272L71.9197 38.4063L71.9313 38.4324L72.834 40.5598L72.8447 40.5869L73.6208 42.7597L73.6295 42.7868L74.278 45.0012L74.2847 45.0293L74.8047 47.2814L74.8105 47.3095L75.201 49.5955L75.2048 49.6235L75.4639 51.9404L75.4658 51.9685L75.5934 54.3115C75.5939 54.3209 75.5934 54.3302 75.5934 54.3396L75.5866 56.7058C75.5866 56.7151 75.5862 56.7246 75.5856 56.7339L75.5364 57.5597L76.3124 55.9854L77.2789 53.7217L78.1304 51.3864L78.8727 48.9669L79.5028 46.4527L79.7899 44.9964L79.6845 44.57L79.1762 42.7365L78.6195 40.934L78.0154 39.1615L77.3543 37.3938L76.2264 36.3466L74.2451 34.6862L72.2174 33.1603L70.1337 31.7572L68.0315 30.5001L66.4842 29.6859L67.0099 30.326ZM14.0297 27.572L14.0307 27.573L12.1305 28.5951L12.1296 28.5941L10.2478 29.6607L10.2488 29.6617L8.35735 30.7882L6.45819 31.9767L6.45723 31.9757L4.5658 33.2145L2.67437 34.5073L1.07966 35.6426L1.70305 37.4983L2.47334 39.6566L3.27746 41.7705L4.11251 43.8389L4.98042 45.8638L5.87926 47.8423L6.81193 49.7773L7.13087 50.4029L8.21528 48.5917L8.22688 48.5733L9.86605 46.092C9.8702 46.0857 9.87514 46.0797 9.87958 46.0736L11.5883 43.7267C11.5929 43.7205 11.598 43.7144 11.6028 43.7084L13.3783 41.4959L13.3937 41.4775L14.5081 40.2155L14.3477 38.5397C14.3469 38.5319 14.3461 38.5234 14.3457 38.5156L14.2095 35.6813C14.2091 35.6737 14.2085 35.6657 14.2085 35.6581L14.2046 32.7542C14.2046 32.7468 14.2043 32.7393 14.2046 32.7319L14.3361 29.7613L14.338 29.739L14.5535 27.3061L14.0297 27.572ZM81.662 29.739L81.6639 29.7613L81.7954 32.7319C81.7957 32.7393 81.7954 32.7468 81.7954 32.7542L81.7915 35.6581C81.7915 35.6657 81.7909 35.6737 81.7905 35.6813L81.6543 38.5156C81.6539 38.5234 81.6531 38.5319 81.6523 38.5397L81.4909 40.2155L82.6062 41.4775C82.6114 41.4834 82.6168 41.4897 82.6217 41.4959L84.3972 43.7084C84.402 43.7144 84.4071 43.7205 84.4117 43.7267L86.1204 46.0736L86.1339 46.092L87.7731 48.5733L87.7847 48.5917L88.8682 50.4019L89.1881 49.7773L90.1198 47.8423L91.0196 45.8638L91.8875 43.8389L92.7225 41.7705L93.5257 39.6566L94.2969 37.4983L94.9194 35.6426L93.3256 34.5073L91.4342 33.2145L89.5418 31.9757L87.6417 30.7892L85.7512 29.6617L83.8695 28.5941L81.9693 27.573L81.4455 27.3061L81.662 29.739ZM15.9559 40.0734L15.5345 40.5492L15.5964 41.1932L15.8129 42.6756L15.8699 42.4716L15.8738 42.458L16.4343 40.642L16.4392 40.6275L16.9891 39.0126L15.9559 40.0734ZM79.5608 40.6275L79.5657 40.642L80.1262 42.458L80.1301 42.4716L80.1861 42.6756L80.4026 41.1932L80.4645 40.5492L80.0441 40.0734L79.0099 39.0126L79.5608 40.6275ZM25.3657 22.6287L23.4665 23.3201L23.4656 23.3191L21.578 24.0618L19.6895 24.8576L17.8106 25.7047L15.9105 26.6166L15.9095 26.6156L15.5954 26.7752L15.5916 26.8119L15.3238 29.827L15.1943 32.7532L15.1982 35.6339L15.3335 38.4614L15.406 39.2176L17.1437 37.4373L17.1621 37.4199L17.8097 36.8185L18.4475 35.2529L18.4524 35.2403L19.2236 33.492L19.2294 33.4784L20.0529 31.7475C20.0549 31.7433 20.0575 31.7391 20.0596 31.7349L20.9353 30.0204L20.9421 30.0079L21.8709 28.3108L22.8586 26.6195L22.8654 26.6069L23.8995 24.9446L23.9063 24.933L24.9926 23.2872L24.9994 23.2756L25.4788 22.591L25.3657 22.6287ZM70.9996 23.2766L71.0074 23.2872L72.0937 24.933L72.1014 24.9446L73.1346 26.6069L73.1414 26.6185L74.1291 28.3108L75.0579 30.0088L75.0647 30.0204L75.9403 31.7349C75.9425 31.7391 75.9451 31.7433 75.9471 31.7475L76.7706 33.4784L76.7764 33.492L77.5476 35.2403L77.5525 35.2529L78.1894 36.8175L78.8389 37.4199L78.8563 37.4373L80.593 39.2176L80.6655 38.4614L80.8018 35.6339L80.8057 32.7532L80.6762 29.827L80.4065 26.7907L80.4046 26.7762L80.0895 26.6156L78.1894 25.7047L76.3105 24.8576L74.422 24.0618L72.5335 23.3191L70.6333 22.6296L70.5203 22.591L70.9996 23.2766ZM40.4488 19.1204L38.5709 19.365L36.6766 19.6697L36.6756 19.6687L34.8025 20.0226L34.8035 20.0236L32.9159 20.4336L32.9169 20.4346L31.0168 20.9045L29.1428 21.4219L27.2426 22.0021L27.0619 22.062L26.942 22.2254L25.8112 23.8432L24.7326 25.4784L23.7062 27.1301L22.732 28.7991L21.81 30.4836L20.9459 32.172L20.9469 32.173L20.1234 33.9049L19.5223 35.2645L21.1325 33.9165C21.1389 33.9111 21.146 33.9061 21.1528 33.901L23.2008 32.3587L23.222 32.3432L25.3135 30.9352L25.3357 30.9207L27.4659 29.6472L27.4891 29.6336L29.654 28.4945L29.6792 28.4819L31.0999 27.8302L32.1582 26.6795C32.1643 26.6728 32.171 26.6664 32.1775 26.6601L33.9298 24.9524L33.9501 24.934L35.8193 23.3007L35.8396 23.2833L37.8238 21.7294L37.8451 21.7139L39.9433 20.2412C39.9503 20.2363 39.9574 20.2312 39.9646 20.2266L41.9787 18.9637L40.4488 19.1204ZM56.0354 20.2266L56.0567 20.2412L58.1549 21.7139L58.1762 21.7294L60.1604 23.2833C60.1674 23.2888 60.175 23.2949 60.1817 23.3007L62.0509 24.934L62.0702 24.9524L63.8225 26.6601L63.8418 26.6795L64.8991 27.8302L66.3208 28.4819C66.3291 28.4857 66.3379 28.4903 66.346 28.4945L68.5109 29.6336L68.5341 29.6472L70.6643 30.9207L70.6865 30.9352L72.778 32.3432L72.7992 32.3587L74.8472 33.901L74.8675 33.9165L76.4767 35.2645L75.8766 33.9049L75.0531 32.173L74.19 30.4836L73.268 28.7991L72.2938 27.1301L71.2674 25.4784L70.1887 23.8432L69.0579 22.2254L68.9371 22.062L68.7574 22.0021L66.8572 21.4219L64.9832 20.9045L63.0831 20.4346L61.1965 20.0236L59.3234 19.6687L57.4281 19.365L55.5512 19.1204L54.0203 18.9637L56.0354 20.2266ZM46.1202 18.7075L46.1211 18.7085L44.3022 18.7868L42.6853 19.689L40.501 21.0592L38.4182 22.5204L36.4494 24.0637L34.6141 25.667L33.3547 26.8951L34.1241 26.5934L34.1502 26.5847L36.3973 25.8469L36.4243 25.8391L38.6907 25.2357L38.7178 25.2289L40.9997 24.76L41.0277 24.7542L43.3222 24.4196L43.3502 24.4157L45.6514 24.2146C45.661 24.2137 45.6708 24.2139 45.6804 24.2136L47.9855 24.1459C47.9951 24.1456 48.0049 24.1456 48.0145 24.1459L50.3196 24.2136L50.3486 24.2146L52.6498 24.4157L52.6778 24.4196L54.9723 24.7542L55.0003 24.76L57.2822 25.2289L57.3093 25.2357L59.5757 25.8391L59.6027 25.8469L61.8498 26.5847L61.8759 26.5934L62.6443 26.8951L61.385 25.667L59.5506 24.0637L57.5808 22.5204L55.499 21.0592L53.3138 19.689L51.6978 18.7868L49.8789 18.7085L48 18.6804L46.1202 18.7075ZM18.1035 14.1423L17.253 17.3972L16.5522 20.5951L16.0023 23.7127L15.753 25.5925L17.3825 24.8112L17.3931 24.8064L19.2942 23.9506L19.3048 23.9457L21.2049 23.1441L21.2165 23.1393L23.1167 22.3937L23.1283 22.3889L25.0284 21.6984L25.041 21.6946L26.452 21.2217L27.3373 20.0245L27.3451 20.0149L28.589 18.4203L28.5967 18.4096L29.8927 16.8325L29.9005 16.8228L31.2497 15.2621L31.2574 15.2534L32.6589 13.71L32.6666 13.7013L33.7674 12.5448L31.8518 12.1928L28.7175 11.7518L25.4614 11.4298L22.0999 11.2326L19.0042 11.1745L18.1035 14.1423ZM73.8991 11.2326L70.5386 11.4298L67.2825 11.7518L64.1482 12.1928L62.2316 12.5448L63.3334 13.7013L63.3411 13.71L64.7426 15.2534L64.7503 15.2621L66.0995 16.8228L66.1072 16.8325L67.4033 18.4096L67.411 18.4193L68.6549 20.0149L68.6627 20.0245L69.547 21.2217L70.959 21.6946L70.9716 21.6984L72.8717 22.3889L72.8833 22.3937L74.7835 23.1393L74.7951 23.1441L76.6952 23.9457L76.7068 23.9506L78.6069 24.8064L78.6175 24.8112L80.247 25.5925L80.0006 23.734L79.4477 20.5951L78.7432 17.3779L77.8965 14.1423L76.9948 11.1745L73.8991 11.2326ZM34.8364 12.8571L33.3837 14.384L31.9978 15.909L31.9987 15.9099L30.6495 17.4707L29.3612 19.0392L28.125 20.6241L28.0545 20.7189L28.8538 20.4752L28.8663 20.4713L30.7665 19.9462L30.779 19.9423L32.6801 19.4734L32.6927 19.4695L34.5928 19.0556L34.6063 19.0527L36.5065 18.6939L36.521 18.691L38.4211 18.3874L38.4346 18.3855L40.3347 18.137L40.3492 18.135L42.2494 17.9416L42.2639 17.9407L44.0161 17.813L44.5226 17.5306L44.5438 17.519L46.7735 16.4167L46.066 16.1092L43.4401 15.1131L40.6943 14.2167L37.8721 13.4354L34.934 12.7604L34.8364 12.8571ZM58.1279 13.4354L55.3048 14.2158L55.3057 14.2167L52.5589 15.1131L49.933 16.1092L49.2255 16.4167L51.4562 17.519L51.4774 17.5306L51.9829 17.813L53.7361 17.9407L53.7506 17.9416L55.6508 18.135C55.6555 18.1355 55.6606 18.1363 55.6653 18.137L57.5654 18.3855L57.5789 18.3874L59.479 18.691L59.4935 18.6939L61.3937 19.0527L61.4072 19.0556L63.3073 19.4705L63.3199 19.4734L65.221 19.9433L65.2335 19.9462L67.1337 20.4713L67.1462 20.4752L67.9445 20.7189L67.875 20.6241L66.6388 19.0392L65.3505 17.4707L64.0013 15.9099L62.6163 14.384L61.1627 12.8581L61.0651 12.7604L58.1279 13.4354ZM47.4172 17.2038L46.384 17.7134L47.9932 17.6912H48.0068L49.615 17.7134L48.5828 17.2038L48 16.9495L47.4172 17.2038ZM46.4208 2.70747L44.6134 4.10092L44.6144 4.10189L42.8457 5.52628L41.1379 6.96034L39.4881 8.40408L39.4891 8.40505L37.8856 9.87102L37.8866 9.87199L36.3277 11.365L36.3267 11.3641L35.7584 11.9336L38.0934 12.4703L38.1147 12.4752L40.9794 13.2691L41.0016 13.2749L43.76 14.1761C43.7673 14.1785 43.7751 14.1811 43.7822 14.1839L46.4343 15.1905L46.4565 15.1992L48 15.8703L49.5445 15.1992L49.5657 15.1905L52.2178 14.1839C52.225 14.1811 52.2327 14.1785 52.24 14.1761L54.9984 13.2749C55.0055 13.2725 55.0134 13.2711 55.0206 13.2691L57.8853 12.4752L57.9066 12.4703L60.2406 11.9336L59.6723 11.3641L58.1134 9.87199L56.51 8.40505L54.8621 6.96034L53.1543 5.52628L51.3856 4.10189L49.5792 2.70747L48 1.53546L46.4208 2.70747Z" fill="black"/>
</svg>
