<svg width="66" height="50" viewBox="0 0 66 50" fill="none" xmlns="http://www.w3.org/2000/svg">
  <rect x="0.75" y="0.75" width="64.5" height="48.5" rx="4.25" stroke="#181616" stroke-width="0.5" />
  <rect x="3.125" y="3.125" width="27.75" height="43.75" rx="1.875" stroke="#181616"
    stroke-opacity="0.25" stroke-width="0.25" />
  <path
    d="M9.84 29.136C9.44 29.136 9.07733 29.072 8.752 28.944C8.42667 28.816 8.14933 28.6293 7.92 28.384C7.696 28.1333 7.52533 27.832 7.408 27.48C7.29067 27.128 7.232 26.728 7.232 26.28C7.232 25.88 7.27733 25.4667 7.368 25.04C7.45867 24.6133 7.59467 24.192 7.776 23.776C7.95733 23.3547 8.17867 22.96 8.44 22.592C8.70667 22.224 9.01333 21.8987 9.36 21.616C9.712 21.328 10.1013 21.104 10.528 20.944C10.9547 20.7787 11.416 20.696 11.912 20.696C12.2587 20.696 12.568 20.7333 12.84 20.808C13.112 20.8827 13.352 20.992 13.56 21.136C13.7733 21.2747 13.952 21.4533 14.096 21.672C14.1387 21.736 14.1467 21.792 14.12 21.84C14.0987 21.888 14.0453 21.9413 13.96 22C13.8907 22.0587 13.8293 22.088 13.776 22.088C13.7227 22.088 13.656 22.0507 13.576 21.976C13.3893 21.784 13.152 21.6373 12.864 21.536C12.5813 21.4293 12.2267 21.376 11.8 21.376C11.4267 21.376 11.0747 21.4453 10.744 21.584C10.4133 21.7173 10.1067 21.904 9.824 22.144C9.54133 22.3787 9.28533 22.6533 9.056 22.968C8.832 23.2827 8.64 23.6213 8.48 23.984C8.32 24.3467 8.19733 24.72 8.112 25.104C8.02667 25.4827 7.984 25.856 7.984 26.224C7.984 26.6027 8.02667 26.936 8.112 27.224C8.20267 27.5067 8.33067 27.744 8.496 27.936C8.66133 28.128 8.864 28.2747 9.104 28.376C9.344 28.472 9.616 28.52 9.92 28.52C10 28.52 10.056 28.552 10.088 28.616C10.12 28.6747 10.1307 28.7467 10.12 28.832C10.1093 28.912 10.08 28.9813 10.032 29.04C9.984 29.104 9.92 29.136 9.84 29.136ZM9.84169 29.136C9.76169 29.136 9.70569 29.104 9.67369 29.04C9.64169 28.9813 9.63102 28.912 9.64169 28.832C9.65235 28.7467 9.68169 28.6747 9.72969 28.616C9.77769 28.552 9.84169 28.52 9.92169 28.52C10.247 28.52 10.575 28.472 10.9057 28.376C11.2364 28.2747 11.5697 28.1253 11.9057 27.928C12.2417 27.7253 12.5724 27.4773 12.8977 27.184C13.223 26.8853 13.5404 26.5413 13.8497 26.152C13.8977 26.0827 13.9564 26.064 14.0257 26.096C14.1004 26.1227 14.1564 26.1707 14.1937 26.24C14.2364 26.3093 14.2337 26.376 14.1857 26.44C13.8657 26.8827 13.5297 27.2747 13.1777 27.616C12.8257 27.952 12.463 28.232 12.0897 28.456C11.7164 28.68 11.343 28.8507 10.9697 28.968C10.591 29.08 10.215 29.136 9.84169 29.136ZM14.9617 29.152C14.631 29.152 14.351 29.0853 14.1217 28.952C13.8924 28.8187 13.719 28.6347 13.6017 28.4C13.4897 28.16 13.4337 27.8907 13.4337 27.592C13.4337 27.3093 13.4844 27.0107 13.5857 26.696C13.687 26.376 13.8364 26.0773 14.0337 25.8C14.2364 25.5173 14.487 25.288 14.7857 25.112C15.0897 24.936 15.4417 24.848 15.8417 24.848C16.1724 24.848 16.4497 24.912 16.6737 25.04C16.903 25.1627 17.0737 25.3387 17.1857 25.568C17.303 25.792 17.3617 26.0533 17.3617 26.352C17.3617 26.5653 17.3297 26.8 17.2657 27.056C17.207 27.3067 17.1137 27.5573 16.9857 27.808C16.863 28.0533 16.7057 28.2773 16.5137 28.48C16.3217 28.6827 16.095 28.8453 15.8337 28.968C15.5777 29.0907 15.287 29.152 14.9617 29.152ZM15.0417 28.512C15.303 28.512 15.5324 28.4427 15.7297 28.304C15.927 28.1653 16.0924 27.9893 16.2257 27.776C16.359 27.5573 16.4604 27.3307 16.5297 27.096C16.599 26.856 16.6337 26.6347 16.6337 26.432C16.6337 26.224 16.599 26.0507 16.5297 25.912C16.4604 25.7733 16.3617 25.6693 16.2337 25.6C16.1057 25.5253 15.9537 25.488 15.7777 25.488C15.511 25.488 15.2764 25.5573 15.0737 25.696C14.871 25.8293 14.7004 26.0027 14.5617 26.216C14.4284 26.4293 14.327 26.6533 14.2577 26.888C14.1884 27.1227 14.1537 27.3387 14.1537 27.536C14.1537 27.744 14.1884 27.9227 14.2577 28.072C14.3324 28.216 14.4364 28.3253 14.5697 28.4C14.703 28.4747 14.8604 28.512 15.0417 28.512ZM18.0062 25.992C17.6862 25.992 17.4089 25.952 17.1742 25.872C16.9342 25.7867 16.6915 25.672 16.4462 25.528C16.3715 25.4747 16.3315 25.4133 16.3262 25.344C16.3155 25.2747 16.3315 25.2107 16.3742 25.152C16.4115 25.0933 16.4622 25.0533 16.5262 25.032C16.5849 25.0053 16.6409 25.0107 16.6942 25.048C16.8329 25.1333 16.9742 25.208 17.1182 25.272C17.2569 25.3307 17.4142 25.3733 17.5902 25.4C17.7662 25.4267 17.9689 25.44 18.1982 25.44C18.3475 25.44 18.5155 25.4293 18.7022 25.408C18.8942 25.3813 19.0862 25.3413 19.2782 25.288C19.4755 25.2293 19.6515 25.1573 19.8062 25.072C19.8755 25.0347 19.9315 25.0427 19.9742 25.096C20.0169 25.1493 20.0382 25.216 20.0382 25.296C20.0435 25.3707 20.0115 25.4267 19.9422 25.464C19.5529 25.672 19.1902 25.8133 18.8542 25.888C18.5182 25.9573 18.2355 25.992 18.0062 25.992ZM19.0064 29.136C18.809 29.136 18.6357 29.088 18.4864 28.992C18.3424 28.8907 18.2304 28.7493 18.1504 28.568C18.0704 28.3813 18.0304 28.1653 18.0304 27.92C18.0304 27.6747 18.065 27.4133 18.1344 27.136C18.209 26.8587 18.3184 26.5867 18.4624 26.32C18.6117 26.048 18.7904 25.8027 18.9984 25.584C19.2117 25.36 19.457 25.1813 19.7344 25.048C20.0117 24.9147 20.3237 24.848 20.6704 24.848C20.8357 24.848 21.0037 24.872 21.1744 24.92C21.3504 24.9627 21.5184 25.0267 21.6784 25.112L23.0624 20.952C23.0944 20.8453 23.1344 20.776 23.1824 20.744C23.2357 20.712 23.3157 20.696 23.4224 20.696C23.5877 20.696 23.6917 20.7227 23.7344 20.776C23.7824 20.824 23.7877 20.9013 23.7504 21.008L21.4944 27.824C21.409 28.096 21.3797 28.2827 21.4064 28.384C21.4384 28.4853 21.5504 28.536 21.7424 28.536C21.7957 28.536 21.833 28.568 21.8544 28.632C21.881 28.6907 21.889 28.76 21.8784 28.84C21.873 28.9147 21.8464 28.9813 21.7984 29.04C21.7504 29.104 21.681 29.136 21.5904 29.136C21.3504 29.136 21.1664 29.0987 21.0384 29.024C20.9157 28.9493 20.8304 28.8533 20.7824 28.736C20.7344 28.6187 20.713 28.4907 20.7184 28.352C20.7237 28.2133 20.7424 28.0827 20.7744 27.96L20.7824 27.896C20.569 28.184 20.3557 28.4187 20.1424 28.6C19.9344 28.7813 19.7344 28.9147 19.5424 29C19.3504 29.0907 19.1717 29.136 19.0064 29.136ZM19.2304 28.496C19.417 28.496 19.6197 28.4133 19.8384 28.248C20.057 28.0827 20.289 27.84 20.5344 27.52C20.785 27.1947 21.0304 26.8027 21.2704 26.344L21.5024 25.672C21.3264 25.5973 21.1637 25.5467 21.0144 25.52C20.865 25.4933 20.7264 25.48 20.5984 25.48C20.3584 25.48 20.1397 25.5333 19.9424 25.64C19.745 25.7413 19.5717 25.88 19.4224 26.056C19.2784 26.2267 19.1557 26.416 19.0544 26.624C18.9584 26.832 18.8837 27.04 18.8304 27.248C18.7824 27.4507 18.7584 27.6347 18.7584 27.8C18.7584 27.944 18.777 28.0693 18.8144 28.176C18.8517 28.2773 18.905 28.3573 18.9744 28.416C19.049 28.4693 19.1344 28.496 19.2304 28.496ZM21.5874 29.136C21.5127 29.136 21.4567 29.104 21.4194 29.04C21.382 28.9813 21.3687 28.9147 21.3794 28.84C21.39 28.76 21.4247 28.6907 21.4834 28.632C21.542 28.568 21.6274 28.536 21.7394 28.536C21.8567 28.536 21.9927 28.5093 22.1474 28.456C22.2967 28.3973 22.4834 28.3093 22.7074 28.192C22.926 28.0747 23.1927 27.9173 23.5074 27.72C23.5767 27.6773 23.6407 27.6693 23.6994 27.696C23.758 27.7173 23.8007 27.76 23.8274 27.824C23.854 27.888 23.8594 27.9573 23.8434 28.032C23.8327 28.1067 23.79 28.168 23.7154 28.216C23.3634 28.44 23.0594 28.6213 22.8034 28.76C22.5474 28.8933 22.3234 28.9893 22.1314 29.048C21.9394 29.1067 21.758 29.136 21.5874 29.136ZM24.7314 29.136C24.3954 29.136 24.1207 29.064 23.9074 28.92C23.6994 28.7707 23.5447 28.5707 23.4434 28.32C23.342 28.0693 23.2914 27.7867 23.2914 27.472C23.2914 27.2107 23.3394 26.9307 23.4354 26.632C23.5367 26.328 23.6807 26.0427 23.8674 25.776C24.054 25.504 24.286 25.2827 24.5634 25.112C24.8407 24.936 25.158 24.848 25.5154 24.848C25.7074 24.848 25.8727 24.8827 26.0114 24.952C26.1554 25.016 26.2674 25.112 26.3474 25.24C26.4274 25.368 26.4674 25.5227 26.4674 25.704C26.4674 25.912 26.406 26.1173 26.2834 26.32C26.166 26.5227 25.998 26.7253 25.7794 26.928C25.5607 27.1307 25.2994 27.336 24.9954 27.544C24.6967 27.7467 24.366 27.9547 24.0034 28.168L23.7794 27.632C23.998 27.504 24.222 27.3627 24.4514 27.208C24.6807 27.0533 24.8914 26.8933 25.0834 26.728C25.2807 26.5627 25.4407 26.4027 25.5634 26.248C25.686 26.088 25.7474 25.9387 25.7474 25.8C25.7474 25.6827 25.7154 25.6 25.6514 25.552C25.5874 25.504 25.5047 25.48 25.4034 25.48C25.1794 25.48 24.982 25.5493 24.8114 25.688C24.6407 25.8213 24.4967 25.992 24.3794 26.2C24.262 26.4027 24.1714 26.616 24.1074 26.84C24.0434 27.064 24.0114 27.2613 24.0114 27.432C24.0114 27.656 24.0407 27.848 24.0994 28.008C24.1634 28.168 24.254 28.2907 24.3714 28.376C24.494 28.456 24.6434 28.496 24.8194 28.496C24.99 28.496 25.1474 28.464 25.2914 28.4C25.4354 28.336 25.5714 28.2507 25.6994 28.144C25.8274 28.032 25.9554 27.912 26.0834 27.784C26.1474 27.7093 26.2194 27.6827 26.2994 27.704C26.3794 27.72 26.4487 27.7573 26.5074 27.816C26.566 27.88 26.598 27.9467 26.6034 28.016C26.614 28.08 26.5874 28.1493 26.5234 28.224C26.326 28.4533 26.126 28.6347 25.9234 28.768C25.726 28.9013 25.526 28.9947 25.3234 29.048C25.126 29.1067 24.9287 29.136 24.7314 29.136Z"
    fill="#181616" fill-opacity="0.25" />
  <path
    d="M40.42 15.568C40.22 15.568 40.0387 15.536 39.876 15.472C39.7133 15.408 39.5747 15.3147 39.46 15.192C39.348 15.0667 39.2627 14.916 39.204 14.74C39.1453 14.564 39.116 14.364 39.116 14.14C39.116 13.94 39.1387 13.7333 39.184 13.52C39.2293 13.3067 39.2973 13.096 39.388 12.888C39.4787 12.6773 39.5893 12.48 39.72 12.296C39.8533 12.112 40.0067 11.9493 40.18 11.808C40.356 11.664 40.5507 11.552 40.764 11.472C40.9773 11.3893 41.208 11.348 41.456 11.348C41.6293 11.348 41.784 11.3667 41.92 11.404C42.056 11.4413 42.176 11.496 42.28 11.568C42.3867 11.6373 42.476 11.7267 42.548 11.836C42.5693 11.868 42.5733 11.896 42.56 11.92C42.5493 11.944 42.5227 11.9707 42.48 12C42.4453 12.0293 42.4147 12.044 42.388 12.044C42.3613 12.044 42.328 12.0253 42.288 11.988C42.1947 11.892 42.076 11.8187 41.932 11.768C41.7907 11.7147 41.6133 11.688 41.4 11.688C41.2133 11.688 41.0373 11.7227 40.872 11.792C40.7067 11.8587 40.5533 11.952 40.412 12.072C40.2707 12.1893 40.1427 12.3267 40.028 12.484C39.916 12.6413 39.82 12.8107 39.74 12.992C39.66 13.1733 39.5987 13.36 39.556 13.552C39.5133 13.7413 39.492 13.928 39.492 14.112C39.492 14.3013 39.5133 14.468 39.556 14.612C39.6013 14.7533 39.6653 14.872 39.748 14.968C39.8307 15.064 39.932 15.1373 40.052 15.188C40.172 15.236 40.308 15.26 40.46 15.26C40.5 15.26 40.528 15.276 40.544 15.308C40.56 15.3373 40.5653 15.3733 40.56 15.416C40.5547 15.456 40.54 15.4907 40.516 15.52C40.492 15.552 40.46 15.568 40.42 15.568ZM40.4208 15.568C40.3808 15.568 40.3528 15.552 40.3368 15.52C40.3208 15.4907 40.3155 15.456 40.3208 15.416C40.3262 15.3733 40.3408 15.3373 40.3648 15.308C40.3888 15.276 40.4208 15.26 40.4608 15.26C40.6235 15.26 40.7875 15.236 40.9528 15.188C41.1182 15.1373 41.2848 15.0627 41.4528 14.964C41.6208 14.8627 41.7862 14.7387 41.9488 14.592C42.1115 14.4427 42.2702 14.2707 42.4248 14.076C42.4488 14.0413 42.4782 14.032 42.5128 14.048C42.5502 14.0613 42.5782 14.0853 42.5968 14.12C42.6182 14.1547 42.6168 14.188 42.5928 14.22C42.4328 14.4413 42.2648 14.6373 42.0888 14.808C41.9128 14.976 41.7315 15.116 41.5448 15.228C41.3582 15.34 41.1715 15.4253 40.9848 15.484C40.7955 15.54 40.6075 15.568 40.4208 15.568ZM42.9808 15.576C42.8155 15.576 42.6755 15.5427 42.5608 15.476C42.4462 15.4093 42.3595 15.3173 42.3008 15.2C42.2448 15.08 42.2168 14.9453 42.2168 14.796C42.2168 14.6547 42.2422 14.5053 42.2928 14.348C42.3435 14.188 42.4182 14.0387 42.5168 13.9C42.6182 13.7587 42.7435 13.644 42.8928 13.556C43.0448 13.468 43.2208 13.424 43.4208 13.424C43.5862 13.424 43.7248 13.456 43.8368 13.52C43.9515 13.5813 44.0368 13.6693 44.0928 13.784C44.1515 13.896 44.1808 14.0267 44.1808 14.176C44.1808 14.2827 44.1648 14.4 44.1328 14.528C44.1035 14.6533 44.0568 14.7787 43.9928 14.904C43.9315 15.0267 43.8528 15.1387 43.7568 15.24C43.6608 15.3413 43.5475 15.4227 43.4168 15.484C43.2888 15.5453 43.1435 15.576 42.9808 15.576ZM43.0208 15.256C43.1515 15.256 43.2662 15.2213 43.3648 15.152C43.4635 15.0827 43.5462 14.9947 43.6128 14.888C43.6795 14.7787 43.7302 14.6653 43.7648 14.548C43.7995 14.428 43.8168 14.3173 43.8168 14.216C43.8168 14.112 43.7995 14.0253 43.7648 13.956C43.7302 13.8867 43.6808 13.8347 43.6168 13.8C43.5528 13.7627 43.4768 13.744 43.3888 13.744C43.2555 13.744 43.1382 13.7787 43.0368 13.848C42.9355 13.9147 42.8502 14.0013 42.7808 14.108C42.7142 14.2147 42.6635 14.3267 42.6288 14.444C42.5942 14.5613 42.5768 14.6693 42.5768 14.768C42.5768 14.872 42.5942 14.9613 42.6288 15.036C42.6662 15.108 42.7182 15.1627 42.7848 15.2C42.8515 15.2373 42.9302 15.256 43.0208 15.256ZM44.2791 13.98C44.2338 13.98 44.1818 13.9733 44.1231 13.96C44.0644 13.944 44.0071 13.9227 43.9511 13.896C43.8951 13.8693 43.8484 13.8413 43.8111 13.812C43.7871 13.7933 43.7738 13.768 43.7711 13.736C43.7658 13.7013 43.7698 13.668 43.7831 13.636C43.7938 13.604 43.8111 13.5813 43.8351 13.568C43.8591 13.552 43.8858 13.5547 43.9151 13.576C43.9898 13.6267 44.0591 13.66 44.1231 13.676C44.1844 13.6893 44.2418 13.696 44.2951 13.696C44.3724 13.696 44.4431 13.6827 44.5071 13.656C44.5738 13.6267 44.6364 13.596 44.6951 13.564C44.7538 13.5293 44.8124 13.4987 44.8711 13.472C44.9324 13.4427 44.9951 13.428 45.0591 13.428C45.0964 13.428 45.1231 13.444 45.1391 13.476C45.1578 13.5053 45.1644 13.54 45.1591 13.58C45.1564 13.6173 45.1404 13.652 45.1111 13.684C45.0818 13.7133 45.0378 13.728 44.9791 13.728C44.9364 13.728 44.8898 13.7413 44.8391 13.768C44.7911 13.792 44.7378 13.8213 44.6791 13.856C44.6231 13.888 44.5618 13.9173 44.4951 13.944C44.4284 13.968 44.3564 13.98 44.2791 13.98ZM44.6912 15.56C44.6485 15.56 44.6085 15.5507 44.5712 15.532C44.5365 15.5133 44.5272 15.4787 44.5432 15.428L45.0552 13.848C45.0659 13.8133 45.0659 13.7853 45.0552 13.764C45.0445 13.74 45.0205 13.728 44.9832 13.728C44.9432 13.728 44.9165 13.7133 44.9032 13.684C44.8925 13.652 44.8912 13.6173 44.8992 13.58C44.9099 13.54 44.9285 13.5053 44.9552 13.476C44.9845 13.444 45.0205 13.428 45.0632 13.428C45.1539 13.428 45.2232 13.444 45.2712 13.476C45.3192 13.5053 45.3512 13.5467 45.3672 13.6C45.3859 13.6507 45.3925 13.7067 45.3872 13.768C45.3845 13.8267 45.3779 13.884 45.3672 13.94L45.3112 14.104C45.3859 13.9947 45.4619 13.8987 45.5392 13.816C45.6165 13.7307 45.6952 13.6587 45.7752 13.6C45.8579 13.5413 45.9392 13.4973 46.0192 13.468C46.1019 13.4387 46.1845 13.424 46.2672 13.424C46.4112 13.424 46.5152 13.46 46.5792 13.532C46.6459 13.6013 46.6792 13.6973 46.6792 13.82C46.6792 13.9427 46.6539 14.0787 46.6032 14.228L46.2032 15.456C46.1899 15.4907 46.1699 15.516 46.1432 15.532C46.1165 15.5507 46.0725 15.56 46.0112 15.56C45.9685 15.56 45.9285 15.5507 45.8912 15.532C45.8539 15.5133 45.8445 15.4787 45.8632 15.428L46.2872 14.124C46.3112 14.0547 46.3259 13.992 46.3312 13.936C46.3365 13.8773 46.3245 13.8307 46.2952 13.796C46.2685 13.7613 46.2165 13.744 46.1392 13.744C46.0565 13.744 45.9672 13.776 45.8712 13.84C45.7752 13.904 45.6765 13.996 45.5752 14.116C45.4765 14.2333 45.3792 14.3733 45.2832 14.536C45.1872 14.696 45.0965 14.872 45.0112 15.064L44.8832 15.456C44.8725 15.4907 44.8525 15.516 44.8232 15.532C44.7965 15.5507 44.7525 15.56 44.6912 15.56ZM47.6832 15.568C47.5712 15.568 47.4859 15.5467 47.4272 15.504C47.3685 15.464 47.3299 15.412 47.3112 15.348C47.2925 15.2813 47.2872 15.2093 47.2952 15.132C47.3032 15.052 47.3205 14.976 47.3472 14.904L47.6072 14.124C47.6312 14.0547 47.6459 13.992 47.6512 13.936C47.6565 13.8773 47.6445 13.8307 47.6152 13.796C47.5885 13.7613 47.5365 13.744 47.4592 13.744C47.3739 13.744 47.2819 13.7773 47.1832 13.844C47.0845 13.9107 46.9845 14.0067 46.8832 14.132C46.7819 14.2547 46.6819 14.4 46.5832 14.568C46.4872 14.7333 46.3965 14.9147 46.3112 15.112H46.1552C46.2485 14.848 46.3499 14.612 46.4592 14.404C46.5685 14.196 46.6859 14.0187 46.8112 13.872C46.9365 13.7253 47.0645 13.6147 47.1952 13.54C47.3259 13.4627 47.4579 13.424 47.5912 13.424C47.7352 13.424 47.8392 13.46 47.9032 13.532C47.9672 13.604 47.9992 13.7013 47.9992 13.824C48.0019 13.944 47.9779 14.0787 47.9272 14.228L47.6952 14.912C47.6499 15.048 47.6325 15.1413 47.6432 15.192C47.6539 15.2427 47.6939 15.268 47.7632 15.268C47.8032 15.268 47.8312 15.284 47.8472 15.316C47.8659 15.3453 47.8712 15.38 47.8632 15.42C47.8579 15.4573 47.8405 15.4907 47.8112 15.52C47.7819 15.552 47.7392 15.568 47.6832 15.568ZM47.6962 15.568C47.6562 15.568 47.6309 15.552 47.6202 15.52C47.6096 15.4907 47.6109 15.4573 47.6242 15.42C47.6349 15.38 47.6536 15.3453 47.6802 15.316C47.7069 15.284 47.7362 15.268 47.7682 15.268C47.8136 15.268 47.8629 15.252 47.9162 15.22C47.9696 15.1853 48.0256 15.1347 48.0842 15.068C48.1402 15.0013 48.2002 14.9187 48.2642 14.82C48.3282 14.7187 48.3936 14.6 48.4602 14.464C48.5749 14.232 48.6776 14.048 48.7682 13.912C48.8616 13.7733 48.9469 13.6693 49.0242 13.6C49.1042 13.5307 49.1802 13.4853 49.2522 13.464C49.3269 13.44 49.4002 13.428 49.4722 13.428C49.4989 13.428 49.5162 13.444 49.5242 13.476C49.5322 13.5053 49.5322 13.54 49.5242 13.58C49.5162 13.6173 49.5002 13.652 49.4762 13.684C49.4549 13.7133 49.4256 13.728 49.3882 13.728C49.3562 13.728 49.3189 13.7373 49.2762 13.756C49.2362 13.7747 49.1909 13.8107 49.1402 13.864C49.0922 13.9173 49.0362 13.9947 48.9722 14.096C48.9109 14.1947 48.8389 14.324 48.7562 14.484C48.6389 14.724 48.5309 14.916 48.4322 15.06C48.3336 15.204 48.2416 15.3133 48.1562 15.388C48.0709 15.46 47.9909 15.508 47.9162 15.532C47.8416 15.556 47.7682 15.568 47.6962 15.568ZM48.7002 15.56C48.6576 15.56 48.6176 15.5507 48.5802 15.532C48.5456 15.5133 48.5362 15.4787 48.5522 15.428L49.0602 13.848C49.0709 13.8133 49.0709 13.7853 49.0602 13.764C49.0522 13.74 49.0296 13.728 48.9922 13.728C48.9522 13.728 48.9256 13.7133 48.9122 13.684C48.8989 13.652 48.8962 13.6173 48.9042 13.58C48.9149 13.54 48.9349 13.5053 48.9642 13.476C48.9936 13.444 49.0296 13.428 49.0722 13.428C49.1629 13.428 49.2322 13.444 49.2802 13.476C49.3282 13.5053 49.3602 13.5467 49.3762 13.6C49.3922 13.6507 49.3989 13.7067 49.3962 13.768C49.3936 13.8267 49.3856 13.884 49.3722 13.94L49.3202 14.104C49.3922 13.9947 49.4669 13.8987 49.5442 13.816C49.6242 13.7307 49.7042 13.6587 49.7842 13.6C49.8642 13.5413 49.9456 13.4973 50.0282 13.468C50.1109 13.4387 50.1936 13.424 50.2762 13.424C50.4202 13.424 50.5242 13.46 50.5882 13.532C50.6522 13.6013 50.6842 13.6973 50.6842 13.82C50.6842 13.9427 50.6602 14.0787 50.6122 14.228L50.2082 15.456C50.1949 15.4907 50.1749 15.516 50.1482 15.532C50.1216 15.5507 50.0776 15.56 50.0162 15.56C49.9736 15.56 49.9336 15.5507 49.8962 15.532C49.8616 15.5133 49.8522 15.4787 49.8682 15.428L50.2962 14.124C50.3176 14.0547 50.3309 13.992 50.3362 13.936C50.3416 13.8773 50.3309 13.8307 50.3042 13.796C50.2776 13.7613 50.2242 13.744 50.1442 13.744C50.0616 13.744 49.9722 13.776 49.8762 13.84C49.7802 13.904 49.6816 13.996 49.5802 14.116C49.4816 14.2333 49.3842 14.3733 49.2882 14.536C49.1922 14.696 49.1016 14.872 49.0162 15.064L48.8922 15.456C48.8816 15.4907 48.8616 15.516 48.8322 15.532C48.8056 15.5507 48.7616 15.56 48.7002 15.56ZM51.6882 15.568C51.5762 15.568 51.4909 15.5467 51.4322 15.504C51.3736 15.464 51.3349 15.412 51.3162 15.348C51.2976 15.2813 51.2922 15.2093 51.3002 15.132C51.3109 15.052 51.3282 14.976 51.3522 14.904L51.6162 14.124C51.6402 14.0547 51.6536 13.992 51.6562 13.936C51.6616 13.8773 51.6509 13.8307 51.6242 13.796C51.5976 13.7613 51.5456 13.744 51.4682 13.744C51.3829 13.744 51.2909 13.7773 51.1922 13.844C51.0936 13.9107 50.9922 14.0067 50.8882 14.132C50.7869 14.2547 50.6869 14.4 50.5882 14.568C50.4922 14.7333 50.4016 14.9147 50.3162 15.112H50.1642C50.2549 14.848 50.3549 14.612 50.4642 14.404C50.5762 14.196 50.6936 14.0187 50.8162 13.872C50.9416 13.7253 51.0696 13.6147 51.2002 13.54C51.3336 13.4627 51.4656 13.424 51.5962 13.424C51.7402 13.424 51.8442 13.46 51.9082 13.532C51.9722 13.604 52.0056 13.7013 52.0082 13.824C52.0109 13.944 51.9856 14.0787 51.9322 14.228L51.7002 14.912C51.6549 15.048 51.6376 15.1413 51.6482 15.192C51.6616 15.2427 51.7029 15.268 51.7722 15.268C51.8096 15.268 51.8362 15.284 51.8522 15.316C51.8709 15.3453 51.8776 15.38 51.8722 15.42C51.8669 15.4573 51.8482 15.4907 51.8162 15.52C51.7869 15.552 51.7442 15.568 51.6882 15.568ZM51.696 15.568C51.6587 15.568 51.6307 15.552 51.612 15.52C51.5934 15.4907 51.5867 15.4573 51.592 15.42C51.5974 15.38 51.6147 15.3453 51.644 15.316C51.6734 15.284 51.716 15.268 51.772 15.268C51.8307 15.268 51.8987 15.2547 51.976 15.228C52.0507 15.1987 52.144 15.1547 52.256 15.096C52.3654 15.0373 52.4987 14.9587 52.656 14.86C52.6907 14.8387 52.7227 14.8347 52.752 14.848C52.7814 14.8587 52.8027 14.88 52.816 14.912C52.8294 14.944 52.832 14.9787 52.824 15.016C52.8187 15.0533 52.7974 15.084 52.76 15.108C52.584 15.22 52.432 15.3107 52.304 15.38C52.176 15.4467 52.064 15.4947 51.968 15.524C51.872 15.5533 51.7814 15.568 51.696 15.568ZM52.792 14.816C52.9014 14.752 53.0134 14.6813 53.128 14.604C53.2427 14.5267 53.348 14.4467 53.444 14.364C53.5427 14.2813 53.6227 14.2013 53.684 14.124C53.7454 14.044 53.776 13.9693 53.776 13.9C53.776 13.8413 53.76 13.8 53.728 13.776C53.696 13.752 53.6547 13.74 53.604 13.74C53.4947 13.74 53.3974 13.7747 53.312 13.844C53.2267 13.9107 53.1534 13.996 53.092 14.1C53.0334 14.2013 52.988 14.308 52.956 14.42C52.924 14.532 52.908 14.6307 52.908 14.716C52.908 14.804 52.9174 14.8827 52.936 14.952C52.9574 15.0187 52.988 15.0747 53.028 15.12C53.068 15.1653 53.1174 15.2 53.176 15.224C53.2347 15.248 53.3027 15.26 53.38 15.26C53.4174 15.26 53.4427 15.276 53.456 15.308C53.472 15.3373 53.4774 15.3733 53.472 15.416C53.4667 15.456 53.452 15.4907 53.428 15.52C53.404 15.552 53.372 15.568 53.332 15.568C53.1534 15.568 53.0054 15.5333 52.888 15.464C52.7734 15.3947 52.688 15.2973 52.632 15.172C52.576 15.0467 52.548 14.9013 52.548 14.736C52.548 14.6053 52.572 14.4653 52.62 14.316C52.6707 14.164 52.7427 14.0213 52.836 13.888C52.932 13.752 53.048 13.6413 53.184 13.556C53.3227 13.468 53.4814 13.424 53.66 13.424C53.756 13.424 53.8387 13.4413 53.908 13.476C53.98 13.508 54.036 13.556 54.076 13.62C54.116 13.684 54.136 13.7613 54.136 13.852C54.136 13.956 54.1054 14.0587 54.044 14.16C53.9854 14.2613 53.9014 14.3627 53.792 14.464C53.6827 14.5653 53.552 14.668 53.4 14.772C53.2507 14.8733 53.0854 14.9773 52.904 15.084L52.792 14.816ZM53.3332 15.568C53.2826 15.568 53.2479 15.552 53.2292 15.52C53.2079 15.4907 53.1999 15.456 53.2052 15.416C53.2106 15.3733 53.2279 15.3373 53.2572 15.308C53.2866 15.276 53.3266 15.26 53.3772 15.26C53.4972 15.26 53.6079 15.2387 53.7092 15.196C53.8106 15.1533 53.9066 15.0907 53.9972 15.008C54.0852 14.9253 54.1719 14.8227 54.2572 14.7C54.3426 14.5773 54.4293 14.436 54.5173 14.276C54.5759 14.1693 54.6359 14.0653 54.6973 13.964C54.7613 13.8627 54.8293 13.772 54.9013 13.692C54.9733 13.6093 55.0519 13.5453 55.1373 13.5C55.2253 13.452 55.3226 13.428 55.4293 13.428C55.4559 13.428 55.4733 13.444 55.4813 13.476C55.4893 13.5053 55.4893 13.54 55.4813 13.58C55.4733 13.6173 55.4573 13.652 55.4333 13.684C55.4119 13.7133 55.3826 13.728 55.3453 13.728C55.2999 13.728 55.2546 13.744 55.2093 13.776C55.1639 13.8053 55.1186 13.848 55.0733 13.904C55.0306 13.9573 54.9853 14.0213 54.9373 14.096C54.8919 14.1707 54.8453 14.2547 54.7973 14.348C54.7039 14.5107 54.6133 14.6573 54.5253 14.788C54.4399 14.9187 54.3546 15.0333 54.2692 15.132C54.1812 15.2307 54.0892 15.312 53.9932 15.376C53.8972 15.44 53.7959 15.488 53.6892 15.52C53.5799 15.552 53.4612 15.568 53.3332 15.568ZM56.3812 15.568C56.2692 15.568 56.1838 15.5467 56.1252 15.504C56.0665 15.464 56.0265 15.412 56.0052 15.348C55.9865 15.2813 55.9812 15.2093 55.9892 15.132C55.9998 15.052 56.0172 14.976 56.0412 14.904L56.3092 14.124C56.3332 14.052 56.3465 13.988 56.3492 13.932C56.3518 13.8733 56.3372 13.828 56.3052 13.796C56.2758 13.7613 56.2225 13.744 56.1452 13.744C56.0598 13.744 55.9665 13.776 55.8652 13.84C55.7665 13.904 55.6652 13.9947 55.5612 14.112C55.4572 14.2293 55.3545 14.3693 55.2532 14.532C55.1545 14.692 55.0625 14.8693 54.9772 15.064L54.8532 15.456C54.8425 15.4907 54.8225 15.516 54.7932 15.532C54.7665 15.5507 54.7225 15.56 54.6612 15.56C54.6185 15.56 54.5785 15.5507 54.5412 15.532C54.5065 15.5133 54.4972 15.4787 54.5132 15.428L55.0212 13.848C55.0318 13.8133 55.0318 13.7853 55.0212 13.764C55.0132 13.74 54.9905 13.728 54.9532 13.728C54.9185 13.728 54.8945 13.7133 54.8812 13.684C54.8678 13.652 54.8638 13.6173 54.8692 13.58C54.8772 13.54 54.8945 13.5053 54.9212 13.476C54.9505 13.444 54.9878 13.428 55.0332 13.428C55.1238 13.428 55.1932 13.444 55.2412 13.476C55.2892 13.5053 55.3212 13.5467 55.3372 13.6C55.3532 13.6507 55.3598 13.7067 55.3572 13.768C55.3545 13.8267 55.3465 13.884 55.3332 13.94L55.2732 14.124C55.3505 14.012 55.4292 13.9133 55.5092 13.828C55.5918 13.74 55.6745 13.6667 55.7572 13.608C55.8425 13.5467 55.9278 13.5013 56.0132 13.472C56.1012 13.44 56.1892 13.424 56.2772 13.424C56.4078 13.424 56.5078 13.456 56.5772 13.52C56.6492 13.5813 56.6892 13.672 56.6972 13.792C56.7052 13.912 56.6812 14.0573 56.6252 14.228L56.3932 14.912C56.3478 15.048 56.3305 15.1413 56.3412 15.192C56.3518 15.2427 56.3932 15.268 56.4652 15.268C56.5025 15.268 56.5292 15.284 56.5452 15.316C56.5612 15.3453 56.5665 15.38 56.5612 15.42C56.5585 15.4573 56.5412 15.4907 56.5092 15.52C56.4798 15.552 56.4372 15.568 56.3812 15.568ZM56.3835 15.568C56.3462 15.568 56.3182 15.552 56.2995 15.52C56.2809 15.4907 56.2742 15.4573 56.2795 15.42C56.2849 15.38 56.3022 15.3453 56.3315 15.316C56.3609 15.284 56.4035 15.268 56.4595 15.268C56.5315 15.268 56.6102 15.2453 56.6955 15.2C56.7782 15.1547 56.8715 15.0827 56.9755 14.984C57.0769 14.8853 57.1889 14.756 57.3115 14.596C57.4342 14.436 57.5675 14.24 57.7115 14.008C57.7355 13.9707 57.7649 13.9547 57.7995 13.96C57.8369 13.9653 57.8662 13.9827 57.8875 14.012C57.9089 14.0387 57.9102 14.068 57.8915 14.1C57.7262 14.3853 57.5755 14.6227 57.4395 14.812C57.3035 14.9987 57.1755 15.148 57.0555 15.26C56.9355 15.372 56.8209 15.452 56.7115 15.5C56.6022 15.5453 56.4929 15.568 56.3835 15.568ZM57.6515 15.56C57.5342 15.56 57.4449 15.5333 57.3835 15.48C57.3222 15.424 57.2889 15.3453 57.2835 15.244C57.2782 15.14 57.2982 15.0173 57.3435 14.876L57.6875 13.82H57.3795C57.3502 13.82 57.3302 13.8067 57.3195 13.78C57.3089 13.7533 57.3102 13.7133 57.3235 13.66C57.3395 13.6067 57.3609 13.5667 57.3875 13.54C57.4142 13.5133 57.4422 13.5 57.4715 13.5H57.7915L58.0515 12.708C58.0675 12.6547 58.0875 12.62 58.1115 12.604C58.1382 12.588 58.1782 12.58 58.2315 12.58C58.3142 12.58 58.3662 12.5933 58.3875 12.62C58.4115 12.644 58.4142 12.6827 58.3955 12.736L58.1435 13.5H58.6475C58.6769 13.5 58.6969 13.5133 58.7075 13.54C58.7209 13.564 58.7195 13.604 58.7035 13.66C58.6902 13.7107 58.6702 13.7507 58.6435 13.78C58.6169 13.8067 58.5889 13.82 58.5595 13.82H58.0395L57.6515 14.996C57.6222 15.0867 57.6142 15.1533 57.6275 15.196C57.6409 15.2387 57.6729 15.26 57.7235 15.26C57.7875 15.26 57.8542 15.236 57.9235 15.188C57.9929 15.1373 58.0609 15.0693 58.1275 14.984C58.1489 14.96 58.1715 14.9453 58.1955 14.94C58.2222 14.9347 58.2555 14.9453 58.2955 14.972C58.3355 14.996 58.3582 15.0213 58.3635 15.048C58.3689 15.072 58.3649 15.096 58.3515 15.12C58.3222 15.1733 58.2742 15.2347 58.2075 15.304C58.1435 15.3733 58.0649 15.4333 57.9715 15.484C57.8809 15.5347 57.7742 15.56 57.6515 15.56Z"
    fill="#181616" fill-opacity="0.25" />
  <rect x="35.125" y="3.125" width="27.75" height="20.75" rx="1.875" stroke="#181616"
    stroke-opacity="0.25" stroke-width="0.25" />
  <path
    d="M42.936 38.576C42.7227 38.576 42.5307 38.5413 42.36 38.472C42.192 38.4027 42.048 38.3027 41.928 38.172C41.8107 38.0413 41.72 37.8827 41.656 37.696C41.5947 37.5067 41.564 37.292 41.564 37.052C41.564 36.876 41.5813 36.6947 41.616 36.508C41.6533 36.3213 41.7067 36.1373 41.776 35.956C41.8453 35.7747 41.928 35.6013 42.024 35.436C42.1227 35.2707 42.2333 35.12 42.356 34.984C42.4787 34.8453 42.6133 34.728 42.76 34.632C42.8293 34.5867 42.8813 34.5667 42.916 34.572C42.9533 34.5773 42.9853 34.6013 43.012 34.644C43.0493 34.692 43.0613 34.7347 43.048 34.772C43.0373 34.8067 43 34.8467 42.936 34.892C42.8133 34.98 42.7 35.0853 42.596 35.208C42.492 35.3307 42.3987 35.4667 42.316 35.616C42.236 35.7627 42.1667 35.9173 42.108 36.08C42.052 36.2427 42.008 36.408 41.976 36.576C41.9467 36.7413 41.932 36.9053 41.932 37.068C41.932 37.2493 41.9547 37.4133 42 37.56C42.048 37.704 42.116 37.8267 42.204 37.928C42.2947 38.0267 42.404 38.1027 42.532 38.156C42.66 38.2093 42.8067 38.236 42.972 38.236C43.164 38.236 43.3467 38.2013 43.52 38.132C43.6933 38.0627 43.8533 37.9667 44 37.844C44.1467 37.7187 44.2787 37.5747 44.396 37.412C44.5133 37.2493 44.6133 37.0733 44.696 36.884C44.7787 36.692 44.8427 36.4947 44.888 36.292C44.9333 36.0893 44.956 35.8893 44.956 35.692C44.956 35.524 44.9413 35.3773 44.912 35.252C44.8827 35.1267 44.8387 35.0213 44.78 34.936C44.7213 34.8507 44.6467 34.788 44.556 34.748C44.4653 34.7053 44.36 34.684 44.24 34.684C44.1333 34.684 44.028 34.7067 43.924 34.752C43.82 34.7973 43.7187 34.86 43.62 34.94C43.524 35.02 43.4333 35.1107 43.348 35.212C43.2627 35.3133 43.1853 35.42 43.116 35.532C43.0813 35.58 43.0427 35.608 43 35.616C42.96 35.6213 42.9187 35.6093 42.876 35.58C42.8413 35.556 42.8213 35.5253 42.816 35.488C42.8133 35.4507 42.828 35.4053 42.86 35.352C42.948 35.216 43.0453 35.088 43.152 34.968C43.2587 34.8453 43.3733 34.7387 43.496 34.648C43.6213 34.5547 43.7533 34.4813 43.892 34.428C44.0333 34.3747 44.1813 34.348 44.336 34.348C44.5013 34.348 44.6453 34.3787 44.768 34.44C44.8907 34.4987 44.9933 34.5853 45.076 34.7C45.1587 34.8147 45.2213 34.956 45.264 35.124C45.3067 35.2893 45.328 35.4787 45.328 35.692C45.328 35.9213 45.3013 36.152 45.248 36.384C45.1973 36.6133 45.1227 36.836 45.024 37.052C44.9253 37.2653 44.8053 37.4653 44.664 37.652C44.5227 37.836 44.364 37.9973 44.188 38.136C44.012 38.2747 43.8187 38.3827 43.608 38.46C43.3973 38.5373 43.1733 38.576 42.936 38.576ZM45.8432 38.56C45.7126 38.56 45.6099 38.5293 45.5352 38.468C45.4632 38.4067 45.4219 38.3173 45.4112 38.2C45.4032 38.08 45.4259 37.9373 45.4792 37.772L45.8792 36.568C45.8979 36.5147 45.9192 36.48 45.9432 36.464C45.9699 36.448 46.0086 36.44 46.0592 36.44C46.1419 36.44 46.1939 36.4533 46.2152 36.48C46.2392 36.504 46.2419 36.5427 46.2232 36.596L45.8072 37.84C45.7806 37.9173 45.7646 37.9867 45.7592 38.048C45.7566 38.1093 45.7712 38.1573 45.8032 38.192C45.8352 38.2267 45.8899 38.244 45.9672 38.244C46.0552 38.244 46.1486 38.2107 46.2472 38.144C46.3459 38.0773 46.4472 37.984 46.5512 37.864C46.6552 37.7413 46.7566 37.5987 46.8552 37.436C46.9566 37.2707 47.0499 37.088 47.1352 36.888L47.2392 36.568C47.2579 36.5147 47.2792 36.48 47.3032 36.464C47.3299 36.448 47.3686 36.44 47.4192 36.44C47.5019 36.44 47.5539 36.4533 47.5752 36.48C47.5992 36.504 47.6019 36.5427 47.5832 36.596L47.1512 37.912C47.1059 38.048 47.0886 38.1413 47.0992 38.192C47.1099 38.2427 47.1499 38.268 47.2192 38.268C47.2566 38.268 47.2832 38.284 47.2992 38.316C47.3179 38.3453 47.3246 38.38 47.3192 38.42C47.3139 38.4573 47.2966 38.4907 47.2672 38.52C47.2379 38.552 47.1952 38.568 47.1392 38.568C47.0352 38.568 46.9539 38.5493 46.8952 38.512C46.8392 38.4747 46.8019 38.4267 46.7832 38.368C46.7646 38.3093 46.7566 38.2467 46.7592 38.18C46.7646 38.1107 46.7739 38.0453 46.7872 37.984L46.8192 37.876C46.7472 37.9853 46.6712 38.0827 46.5912 38.168C46.5112 38.2507 46.4286 38.3213 46.3432 38.38C46.2606 38.4387 46.1766 38.4827 46.0912 38.512C46.0086 38.544 45.9259 38.56 45.8432 38.56ZM47.1492 38.568C47.1118 38.568 47.0838 38.552 47.0652 38.52C47.0465 38.4907 47.0398 38.4573 47.0452 38.42C47.0505 38.38 47.0678 38.3453 47.0972 38.316C47.1265 38.284 47.1692 38.268 47.2252 38.268C47.2972 38.268 47.3758 38.2453 47.4612 38.2C47.5438 38.1547 47.6372 38.0827 47.7412 37.984C47.8425 37.8853 47.9545 37.756 48.0772 37.596C48.1998 37.436 48.3332 37.24 48.4772 37.008C48.5012 36.9707 48.5305 36.9547 48.5652 36.96C48.6025 36.9653 48.6318 36.9827 48.6532 37.012C48.6745 37.0387 48.6758 37.068 48.6572 37.1C48.4918 37.3853 48.3412 37.6227 48.2052 37.812C48.0692 37.9987 47.9412 38.148 47.8212 38.26C47.7012 38.372 47.5865 38.452 47.4772 38.5C47.3678 38.5453 47.2585 38.568 47.1492 38.568ZM48.6812 38.568C48.5532 38.568 48.4478 38.5413 48.3652 38.488C48.2825 38.4347 48.2212 38.3627 48.1812 38.272C48.1412 38.1813 48.1225 38.0787 48.1252 37.964C48.1305 37.8467 48.1532 37.7253 48.1932 37.6L48.4532 36.82H48.1452C48.1158 36.82 48.0958 36.8067 48.0852 36.78C48.0745 36.7533 48.0758 36.7133 48.0892 36.66C48.1052 36.6067 48.1265 36.5667 48.1532 36.54C48.1798 36.5133 48.2065 36.5 48.2332 36.5H48.5572L48.8172 35.708C48.8332 35.6547 48.8532 35.62 48.8772 35.604C48.9038 35.588 48.9438 35.58 48.9972 35.58C49.0798 35.58 49.1318 35.5933 49.1532 35.62C49.1772 35.644 49.1798 35.6827 49.1612 35.736L48.9092 36.5H49.4132C49.4425 36.5 49.4625 36.5133 49.4732 36.54C49.4865 36.564 49.4852 36.604 49.4692 36.66C49.4558 36.7107 49.4358 36.7507 49.4092 36.78C49.3825 36.8067 49.3545 36.82 49.3252 36.82H48.8052L48.5372 37.636C48.4998 37.7427 48.4798 37.836 48.4772 37.916C48.4745 37.996 48.4838 38.0627 48.5052 38.116C48.5292 38.1667 48.5638 38.2053 48.6092 38.232C48.6545 38.256 48.7065 38.268 48.7652 38.268C48.8025 38.268 48.8292 38.284 48.8452 38.316C48.8638 38.3453 48.8705 38.38 48.8652 38.42C48.8598 38.4573 48.8412 38.4907 48.8092 38.52C48.7798 38.552 48.7372 38.568 48.6812 38.568ZM48.696 38.568C48.6587 38.568 48.6307 38.552 48.612 38.52C48.5934 38.4907 48.5867 38.4573 48.592 38.42C48.5974 38.38 48.6147 38.3453 48.644 38.316C48.6734 38.284 48.716 38.268 48.772 38.268C48.8414 38.268 48.9174 38.2413 49 38.188C49.08 38.132 49.1707 38.0467 49.272 37.932C49.3734 37.8147 49.488 37.664 49.616 37.48C49.7467 37.296 49.8934 37.0733 50.056 36.812C50.08 36.7747 50.1107 36.7587 50.148 36.764C50.1854 36.7667 50.2147 36.7827 50.236 36.812C50.2574 36.8387 50.2587 36.8693 50.24 36.904C50.056 37.2213 49.892 37.488 49.748 37.704C49.6067 37.9173 49.4774 38.088 49.36 38.216C49.2427 38.3413 49.1307 38.432 49.024 38.488C48.9174 38.5413 48.808 38.568 48.696 38.568ZM48.9799 40.652C48.9373 40.652 48.8973 40.6427 48.8599 40.624C48.8226 40.6053 48.8119 40.5707 48.8279 40.52L50.1119 36.568C50.1306 36.5147 50.1519 36.48 50.1759 36.464C50.2026 36.448 50.2413 36.44 50.2919 36.44C50.3746 36.44 50.4266 36.4533 50.4479 36.48C50.4719 36.504 50.4746 36.5427 50.4559 36.596L50.2879 37.116C50.3893 36.9667 50.4946 36.8413 50.6039 36.74C50.7133 36.6387 50.8239 36.5613 50.9359 36.508C51.0506 36.452 51.1639 36.424 51.2759 36.424C51.3719 36.424 51.4506 36.44 51.5119 36.472C51.5759 36.504 51.6226 36.5507 51.6519 36.612C51.6839 36.6733 51.6999 36.748 51.6999 36.836C51.6999 36.9347 51.6839 37.036 51.6519 37.14C51.6226 37.2413 51.5839 37.3413 51.5359 37.44C51.4879 37.5387 51.4399 37.6333 51.3919 37.724C51.3466 37.812 51.3079 37.8933 51.2759 37.968C51.2439 38.04 51.2279 38.0987 51.2279 38.144C51.2279 38.1893 51.2426 38.2213 51.2719 38.24C51.3013 38.2587 51.3413 38.268 51.3919 38.268C51.4293 38.268 51.4573 38.284 51.4759 38.316C51.4946 38.3453 51.4999 38.38 51.4919 38.42C51.4866 38.4573 51.4693 38.4907 51.4399 38.52C51.4106 38.552 51.3679 38.568 51.3119 38.568C51.1839 38.568 51.0799 38.5333 50.9999 38.464C50.9226 38.392 50.8839 38.2947 50.8839 38.172C50.8839 38.1027 50.8999 38.0253 50.9319 37.94C50.9639 37.8547 51.0026 37.7667 51.0479 37.676C51.0959 37.5827 51.1426 37.4907 51.1879 37.4C51.2333 37.3093 51.2719 37.2227 51.3039 37.14C51.3359 37.0573 51.3519 36.984 51.3519 36.92C51.3519 36.864 51.3359 36.8213 51.3039 36.792C51.2719 36.76 51.2199 36.744 51.1479 36.744C51.0599 36.744 50.9653 36.7773 50.8639 36.844C50.7653 36.908 50.6626 37 50.5559 37.12C50.4519 37.2373 50.3493 37.3773 50.2479 37.54C50.1493 37.7027 50.0573 37.8827 49.9719 38.08L49.1679 40.548C49.1573 40.5827 49.1386 40.608 49.1119 40.624C49.0853 40.6427 49.0413 40.652 48.9799 40.652ZM51.3171 38.568C51.2798 38.568 51.2518 38.552 51.2331 38.52C51.2145 38.4907 51.2078 38.4573 51.2131 38.42C51.2185 38.38 51.2358 38.3453 51.2651 38.316C51.2945 38.284 51.3371 38.268 51.3931 38.268C51.4625 38.268 51.5385 38.2413 51.6211 38.188C51.7011 38.132 51.7918 38.0467 51.8931 37.932C51.9945 37.8147 52.1091 37.664 52.2371 37.48C52.3678 37.296 52.5145 37.0733 52.6771 36.812C52.7011 36.7747 52.7318 36.7587 52.7691 36.764C52.8065 36.7667 52.8358 36.7827 52.8571 36.812C52.8785 36.8387 52.8798 36.8693 52.8611 36.904C52.6771 37.2213 52.5131 37.488 52.3691 37.704C52.2278 37.9173 52.0985 38.088 51.9811 38.216C51.8638 38.3413 51.7518 38.432 51.6451 38.488C51.5385 38.5413 51.4291 38.568 51.3171 38.568ZM52.6971 38.56C52.5665 38.56 52.4638 38.5293 52.3891 38.468C52.3171 38.4067 52.2758 38.3173 52.2651 38.2C52.2571 38.08 52.2798 37.9373 52.3331 37.772L52.7331 36.568C52.7518 36.5147 52.7731 36.48 52.7971 36.464C52.8238 36.448 52.8625 36.44 52.9131 36.44C52.9958 36.44 53.0478 36.4533 53.0691 36.48C53.0931 36.504 53.0958 36.5427 53.0771 36.596L52.6611 37.84C52.6345 37.9173 52.6185 37.9867 52.6131 38.048C52.6105 38.1093 52.6251 38.1573 52.6571 38.192C52.6891 38.2267 52.7438 38.244 52.8211 38.244C52.9091 38.244 53.0025 38.2107 53.1011 38.144C53.1998 38.0773 53.3011 37.984 53.4051 37.864C53.5091 37.7413 53.6105 37.5987 53.7091 37.436C53.8105 37.2707 53.9038 37.088 53.9891 36.888L54.0931 36.568C54.1118 36.5147 54.1331 36.48 54.1571 36.464C54.1838 36.448 54.2225 36.44 54.2731 36.44C54.3558 36.44 54.4078 36.4533 54.4291 36.48C54.4531 36.504 54.4558 36.5427 54.4371 36.596L54.0051 37.912C53.9598 38.048 53.9425 38.1413 53.9531 38.192C53.9638 38.2427 54.0038 38.268 54.0731 38.268C54.1105 38.268 54.1371 38.284 54.1531 38.316C54.1718 38.3453 54.1785 38.38 54.1731 38.42C54.1678 38.4573 54.1505 38.4907 54.1211 38.52C54.0918 38.552 54.0491 38.568 53.9931 38.568C53.8891 38.568 53.8078 38.5493 53.7491 38.512C53.6931 38.4747 53.6558 38.4267 53.6371 38.368C53.6185 38.3093 53.6105 38.2467 53.6131 38.18C53.6185 38.1107 53.6278 38.0453 53.6411 37.984L53.6731 37.876C53.6011 37.9853 53.5251 38.0827 53.4451 38.168C53.3651 38.2507 53.2825 38.3213 53.1971 38.38C53.1145 38.4387 53.0305 38.4827 52.9451 38.512C52.8625 38.544 52.7798 38.56 52.6971 38.56ZM53.9968 38.568C53.9595 38.568 53.9315 38.552 53.9128 38.52C53.8941 38.4907 53.8875 38.4573 53.8928 38.42C53.8981 38.38 53.9155 38.3453 53.9448 38.316C53.9741 38.284 54.0168 38.268 54.0728 38.268C54.1448 38.268 54.2235 38.2453 54.3088 38.2C54.3915 38.1547 54.4848 38.0827 54.5888 37.984C54.6901 37.8853 54.8021 37.756 54.9248 37.596C55.0475 37.436 55.1808 37.24 55.3248 37.008C55.3488 36.9707 55.3781 36.9547 55.4128 36.96C55.4501 36.9653 55.4795 36.9827 55.5008 37.012C55.5221 37.0387 55.5235 37.068 55.5048 37.1C55.3395 37.3853 55.1888 37.6227 55.0528 37.812C54.9168 37.9987 54.7888 38.148 54.6688 38.26C54.5488 38.372 54.4341 38.452 54.3248 38.5C54.2155 38.5453 54.1061 38.568 53.9968 38.568ZM55.2687 38.56C55.1514 38.56 55.0621 38.5333 55.0007 38.48C54.9394 38.424 54.9061 38.3453 54.9007 38.244C54.8954 38.14 54.9154 38.0173 54.9607 37.876L55.3047 36.82H54.9967C54.9674 36.82 54.9474 36.8067 54.9367 36.78C54.9261 36.7533 54.9274 36.7133 54.9407 36.66C54.9567 36.6067 54.9781 36.5667 55.0047 36.54C55.0314 36.5133 55.0594 36.5 55.0887 36.5H55.4087L55.6687 35.708C55.6847 35.6547 55.7047 35.62 55.7287 35.604C55.7554 35.588 55.7954 35.58 55.8487 35.58C55.9314 35.58 55.9834 35.5933 56.0047 35.62C56.0287 35.644 56.0314 35.6827 56.0127 35.736L55.7607 36.5H56.2647C56.2941 36.5 56.3141 36.5133 56.3247 36.54C56.3381 36.564 56.3367 36.604 56.3207 36.66C56.3074 36.7107 56.2874 36.7507 56.2607 36.78C56.2341 36.8067 56.2061 36.82 56.1767 36.82H55.6567L55.2687 37.996C55.2394 38.0867 55.2314 38.1533 55.2447 38.196C55.2581 38.2387 55.2901 38.26 55.3407 38.26C55.4047 38.26 55.4714 38.236 55.5407 38.188C55.6101 38.1373 55.6781 38.0693 55.7447 37.984C55.7661 37.96 55.7887 37.9453 55.8127 37.94C55.8394 37.9347 55.8727 37.9453 55.9127 37.972C55.9527 37.996 55.9754 38.0213 55.9807 38.048C55.9861 38.072 55.9821 38.096 55.9687 38.12C55.9394 38.1733 55.8914 38.2347 55.8247 38.304C55.7607 38.3733 55.6821 38.4333 55.5887 38.484C55.4981 38.5347 55.3914 38.56 55.2687 38.56Z"
    fill="#181616" fill-opacity="0.25" />
  <rect x="35.125" y="26.125" width="27.75" height="20.75" rx="1.875" stroke="#181616"
    stroke-opacity="0.25" stroke-width="0.25" />
  <mask id="mask0_118_120" style="mask-type:alpha" maskUnits="userSpaceOnUse" x="1" y="1" width="64"
    height="48">
    <rect x="1" y="1" width="64" height="48" rx="4" fill="#D9D9D9" />
  </mask>
  <g mask="url(#mask0_118_120)">
    <path
      d="M1.95671 27.3097C1.65339 27.4353 1.3283 27.5 1 27.5L1 22.5C1.3283 22.5 1.65339 22.5647 1.95671 22.6903C2.26002 22.8159 2.53562 23.0001 2.76777 23.2322C2.99991 23.4644 3.18406 23.74 3.3097 24.0433C3.43534 24.3466 3.5 24.6717 3.5 25C3.5 25.3283 3.43534 25.6534 3.3097 25.9567C3.18406 26.26 2.99991 26.5356 2.76777 26.7678C2.53562 26.9999 2.26002 27.1841 1.95671 27.3097Z"
      fill="#C5C9C5" stroke="#181616" stroke-width="0.25" stroke-linejoin="round" />
    <path d="M1.53709 26L2.53709 25L1.53709 24" stroke="#181616" stroke-width="0.25"
      stroke-linecap="round" stroke-linejoin="round" />
  </g>
</svg>