<svg width="66" height="50" viewBox="0 0 66 50" fill="none" xmlns="http://www.w3.org/2000/svg">
  <rect x="0.75" y="0.75" width="64.5" height="48.5" rx="4.25" stroke="#181616" stroke-width="0.5" />
  <mask id="mask0_131_40" style="mask-type:alpha" maskUnits="userSpaceOnUse" x="1" y="1" width="64"
    height="48">
    <rect x="1" y="1" width="64" height="48" rx="4" fill="#D9D9D9" />
  </mask>
  <g mask="url(#mask0_131_40)">
    <rect x="1" y="1" width="32" height="48" fill="#C5C9C5" />
    <mask id="path-4-outside-1_131_40" maskUnits="userSpaceOnUse" x="0" y="2" width="33" height="5"
      fill="black">
      <rect fill="white" y="2" width="33" height="5" />
      <path d="M1 3H33V6H1V3Z" />
    </mask>
    <path
      d="M1 3V2.75H0.75V3H1ZM1 6H0.75V6.25H1V6ZM1 3V3.25H33V3V2.75H1V3ZM33 6V5.75H1V6V6.25H33V6ZM1 6H1.25V3H1H0.75V6H1Z"
      fill="#181616" mask="url(#path-4-outside-1_131_40)" />
    <rect x="0.875" y="7.875" width="28.25" height="2.25" stroke="#181616" stroke-opacity="0.75"
      stroke-width="0.25" />
    <rect x="0.875" y="11.875" width="28.25" height="2.25" stroke="#181616" stroke-opacity="0.75"
      stroke-width="0.25" />
    <rect x="0.875" y="38.875" width="28.25" height="2.25" stroke="#181616" stroke-opacity="0.75"
      stroke-width="0.25" />
    <mask id="path-9-outside-2_131_40" maskUnits="userSpaceOnUse" x="0" y="33" width="33" height="5"
      fill="black">
      <rect fill="white" y="33" width="33" height="5" />
      <path d="M1 34H33V37H1V34Z" />
    </mask>
    <path
      d="M1 34V33.75H0.75V34H1ZM1 37H0.75V37.25H1V37ZM1 34V34.25H33V34V33.75H1V34ZM33 37V36.75H1V37V37.25H33V37ZM1 37H1.25V34H1H0.75V37H1Z"
      fill="#181616" mask="url(#path-9-outside-2_131_40)" />
    <rect x="0.875" y="42.875" width="28.25" height="2.25" stroke="#181616" stroke-opacity="0.75"
      stroke-width="0.25" />
    <path
      d="M7.472 27.084C7.376 27.084 7.29067 27.0667 7.216 27.032C7.144 27 7.08667 26.9533 7.044 26.892C7.004 26.828 6.984 26.7547 6.984 26.672C6.984 26.5653 7.01333 26.4707 7.072 26.388C7.13333 26.3053 7.21467 26.24 7.316 26.192C7.42 26.144 7.53733 26.12 7.668 26.12C7.79333 26.12 7.92133 26.136 8.052 26.168C8.18267 26.1973 8.31333 26.2373 8.444 26.288C8.57467 26.336 8.704 26.388 8.832 26.444C8.96 26.5 9.084 26.5533 9.204 26.604C9.32667 26.652 9.44267 26.692 9.552 26.724C9.664 26.7533 9.76667 26.768 9.86 26.768C9.91067 26.768 9.944 26.784 9.96 26.816C9.97867 26.8453 9.98133 26.88 9.968 26.92C9.95733 26.9573 9.93467 26.9907 9.9 27.02C9.868 27.052 9.82667 27.068 9.776 27.068C9.66933 27.068 9.55867 27.052 9.444 27.02C9.32933 26.9907 9.212 26.9533 9.092 26.908C8.972 26.86 8.85067 26.8093 8.728 26.756C8.60533 26.7 8.48267 26.648 8.36 26.6C8.24 26.552 8.11867 26.5133 7.996 26.484C7.876 26.4547 7.75733 26.44 7.64 26.44C7.584 26.44 7.53333 26.448 7.488 26.464C7.44267 26.48 7.40667 26.504 7.38 26.536C7.35333 26.5653 7.34 26.5987 7.34 26.636C7.34 26.6733 7.35333 26.7067 7.38 26.736C7.40933 26.7627 7.448 26.776 7.496 26.776C7.56 26.776 7.62533 26.756 7.692 26.716C7.76133 26.6733 7.82667 26.6067 7.888 26.516C7.952 26.4227 8.008 26.304 8.056 26.16L8.628 24.436C8.71333 24.1773 8.808 23.9493 8.912 23.752C9.01867 23.5547 9.13333 23.3893 9.256 23.256C9.38133 23.12 9.51467 23.0187 9.656 22.952C9.8 22.8827 9.95333 22.848 10.116 22.848C10.2467 22.848 10.364 22.8747 10.468 22.928C10.572 22.9787 10.6533 23.0507 10.712 23.144C10.7707 23.2347 10.8 23.34 10.8 23.46C10.8 23.6067 10.7667 23.7427 10.7 23.868C10.636 23.9907 10.5453 24.0987 10.428 24.192C10.3107 24.2827 10.1707 24.3533 10.008 24.404C9.848 24.4547 9.67333 24.48 9.484 24.48C9.27867 24.48 9.08533 24.464 8.904 24.432C8.72533 24.3973 8.55333 24.3453 8.388 24.276C8.22533 24.2067 8.06267 24.12 7.9 24.016C7.86267 23.9893 7.84133 23.9573 7.836 23.92C7.83333 23.8827 7.84667 23.8413 7.876 23.796C7.90533 23.7533 7.936 23.728 7.968 23.72C8.00267 23.712 8.03867 23.7227 8.076 23.752C8.20933 23.8373 8.348 23.9093 8.492 23.968C8.63867 24.0267 8.796 24.072 8.964 24.104C9.132 24.1333 9.312 24.148 9.504 24.148C9.63733 24.148 9.76 24.132 9.872 24.1C9.984 24.0653 10.0827 24.0187 10.168 23.96C10.2533 23.8987 10.3187 23.8267 10.364 23.744C10.412 23.6613 10.436 23.572 10.436 23.476C10.436 23.4147 10.4213 23.3627 10.392 23.32C10.3653 23.2773 10.3253 23.2453 10.272 23.224C10.2213 23.2 10.1613 23.188 10.092 23.188C9.97467 23.188 9.86267 23.2173 9.756 23.276C9.64933 23.332 9.548 23.416 9.452 23.528C9.35867 23.64 9.26933 23.78 9.184 23.948C9.10133 24.1133 9.024 24.304 8.952 24.52L8.396 26.184C8.324 26.3947 8.24133 26.5667 8.148 26.7C8.05467 26.8333 7.95067 26.9307 7.836 26.992C7.724 27.0533 7.60267 27.084 7.472 27.084ZM9.76244 27.068C9.7251 27.068 9.6971 27.052 9.67844 27.02C9.65977 26.9907 9.6531 26.9573 9.65844 26.92C9.66377 26.88 9.6811 26.8453 9.71044 26.816C9.73977 26.784 9.78244 26.768 9.83844 26.768C9.8971 26.768 9.9651 26.7547 10.0424 26.728C10.1171 26.6987 10.2104 26.6547 10.3224 26.596C10.4318 26.5373 10.5651 26.4587 10.7224 26.36C10.7571 26.3387 10.7891 26.3347 10.8184 26.348C10.8478 26.3587 10.8691 26.38 10.8824 26.412C10.8958 26.444 10.8984 26.4787 10.8904 26.516C10.8851 26.5533 10.8638 26.584 10.8264 26.608C10.6504 26.72 10.4984 26.8107 10.3704 26.88C10.2424 26.9467 10.1304 26.9947 10.0344 27.024C9.93844 27.0533 9.84777 27.068 9.76244 27.068ZM10.8584 26.316C10.9678 26.252 11.0798 26.1813 11.1944 26.104C11.3091 26.0267 11.4144 25.9467 11.5104 25.864C11.6091 25.7813 11.6891 25.7013 11.7504 25.624C11.8118 25.544 11.8424 25.4693 11.8424 25.4C11.8424 25.3413 11.8264 25.3 11.7944 25.276C11.7624 25.252 11.7211 25.24 11.6704 25.24C11.5611 25.24 11.4638 25.2747 11.3784 25.344C11.2931 25.4107 11.2198 25.496 11.1584 25.6C11.0998 25.7013 11.0544 25.808 11.0224 25.92C10.9904 26.032 10.9744 26.1307 10.9744 26.216C10.9744 26.304 10.9838 26.3827 11.0024 26.452C11.0238 26.5187 11.0544 26.5747 11.0944 26.62C11.1344 26.6653 11.1838 26.7 11.2424 26.724C11.3011 26.748 11.3691 26.76 11.4464 26.76C11.4838 26.76 11.5091 26.776 11.5224 26.808C11.5384 26.8373 11.5438 26.8733 11.5384 26.916C11.5331 26.956 11.5184 26.9907 11.4944 27.02C11.4704 27.052 11.4384 27.068 11.3984 27.068C11.2198 27.068 11.0718 27.0333 10.9544 26.964C10.8398 26.8947 10.7544 26.7973 10.6984 26.672C10.6424 26.5467 10.6144 26.4013 10.6144 26.236C10.6144 26.1053 10.6384 25.9653 10.6864 25.816C10.7371 25.664 10.8091 25.5213 10.9024 25.388C10.9984 25.252 11.1144 25.1413 11.2504 25.056C11.3891 24.968 11.5478 24.924 11.7264 24.924C11.8224 24.924 11.9051 24.9413 11.9744 24.976C12.0464 25.008 12.1024 25.056 12.1424 25.12C12.1824 25.184 12.2024 25.2613 12.2024 25.352C12.2024 25.456 12.1718 25.5587 12.1104 25.66C12.0518 25.7613 11.9678 25.8627 11.8584 25.964C11.7491 26.0653 11.6184 26.168 11.4664 26.272C11.3171 26.3733 11.1518 26.4773 10.9704 26.584L10.8584 26.316ZM11.3997 27.068C11.349 27.068 11.3143 27.052 11.2957 27.02C11.2743 26.9907 11.2663 26.956 11.2717 26.916C11.277 26.8733 11.2943 26.8373 11.3237 26.808C11.353 26.776 11.393 26.76 11.4437 26.76C11.585 26.76 11.7357 26.7253 11.8957 26.656C12.053 26.5867 12.2157 26.492 12.3837 26.372C12.5517 26.252 12.717 26.112 12.8797 25.952C13.045 25.792 13.2037 25.6213 13.3557 25.44C13.5077 25.2587 13.649 25.0733 13.7797 24.884C13.9103 24.692 14.0237 24.5053 14.1197 24.324C14.2157 24.14 14.2903 23.968 14.3437 23.808C14.3997 23.6453 14.4277 23.5013 14.4277 23.376C14.4277 23.328 14.4437 23.292 14.4757 23.268C14.5103 23.244 14.5503 23.232 14.5957 23.232C14.641 23.232 14.681 23.244 14.7157 23.268C14.7503 23.292 14.7677 23.328 14.7677 23.376C14.7677 23.5093 14.737 23.664 14.6757 23.84C14.6143 24.0133 14.529 24.2 14.4197 24.4C14.313 24.6 14.1863 24.804 14.0397 25.012C13.8957 25.2173 13.7383 25.42 13.5677 25.62C13.397 25.82 13.2183 26.008 13.0317 26.184C12.845 26.3573 12.657 26.5107 12.4677 26.644C12.281 26.7773 12.097 26.8813 11.9157 26.956C11.7317 27.0307 11.5597 27.068 11.3997 27.068ZM12.4196 29.16C12.3476 29.16 12.2809 29.1427 12.2196 29.108C12.1582 29.076 12.1102 29.0213 12.0756 28.944C12.0409 28.8693 12.0262 28.7693 12.0316 28.644C12.0342 28.5187 12.0662 28.364 12.1276 28.18L13.5996 23.652C13.6929 23.364 13.7982 23.156 13.9156 23.028C14.0329 22.8973 14.1742 22.832 14.3396 22.832C14.4276 22.832 14.5036 22.8547 14.5676 22.9C14.6316 22.9453 14.6809 23.0093 14.7156 23.092C14.7529 23.172 14.7716 23.2667 14.7716 23.376C14.7716 23.4267 14.7542 23.464 14.7196 23.488C14.6849 23.512 14.6449 23.524 14.5996 23.524C14.5542 23.524 14.5142 23.512 14.4796 23.488C14.4476 23.464 14.4316 23.4267 14.4316 23.376C14.4316 23.3333 14.4262 23.296 14.4156 23.264C14.4076 23.2293 14.3929 23.2027 14.3716 23.184C14.3529 23.1653 14.3262 23.156 14.2916 23.156C14.2516 23.156 14.2129 23.1733 14.1756 23.208C14.1382 23.24 14.0996 23.296 14.0596 23.376C14.0222 23.456 13.9782 23.5707 13.9276 23.72L13.1756 26.056C13.2102 26.1707 13.2369 26.296 13.2556 26.432C13.2769 26.568 13.2902 26.7093 13.2956 26.856C13.3036 27 13.3049 27.1453 13.2996 27.292C13.2969 27.4413 13.2862 27.588 13.2676 27.732C13.2516 27.876 13.2302 28.0133 13.2036 28.144C13.1769 28.2747 13.1449 28.396 13.1076 28.508C13.0649 28.6333 13.0129 28.7453 12.9516 28.844C12.8902 28.9427 12.8156 29.02 12.7276 29.076C12.6422 29.132 12.5396 29.16 12.4196 29.16ZM12.4636 28.84C12.4902 28.84 12.5169 28.832 12.5436 28.816C12.5702 28.8 12.5942 28.776 12.6156 28.744C12.6396 28.7147 12.6622 28.6773 12.6836 28.632C12.7076 28.5893 12.7302 28.5413 12.7516 28.488C12.7836 28.4027 12.8129 28.312 12.8396 28.216C12.8662 28.12 12.8902 28.0187 12.9116 27.912C12.9329 27.8053 12.9502 27.6973 12.9636 27.588C12.9796 27.4787 12.9902 27.3693 12.9956 27.26C13.0036 27.1507 13.0062 27.044 13.0036 26.94C13.0036 26.8333 12.9969 26.7347 12.9836 26.644L12.4596 28.272C12.3929 28.48 12.3609 28.6267 12.3636 28.712C12.3689 28.7973 12.4022 28.84 12.4636 28.84ZM13.6537 27.008C13.547 27.008 13.455 26.9693 13.3777 26.892C13.2977 26.8147 13.2297 26.7013 13.1737 26.552C13.1177 26.4027 13.0697 26.2187 13.0297 26C13.027 25.9813 13.0323 25.9533 13.0457 25.916C13.0563 25.876 13.0683 25.8427 13.0817 25.816C13.095 25.7893 13.1043 25.7867 13.1097 25.808C13.1523 25.9973 13.2017 26.1587 13.2577 26.292C13.3137 26.4253 13.3763 26.528 13.4457 26.6C13.515 26.672 13.5883 26.708 13.6657 26.708C13.735 26.708 13.8097 26.684 13.8897 26.636C13.9697 26.588 14.0563 26.512 14.1497 26.408C14.243 26.3013 14.3457 26.1627 14.4577 25.992C14.5723 25.8213 14.695 25.6147 14.8257 25.372C14.8497 25.3293 14.8763 25.3133 14.9057 25.324C14.9377 25.332 14.9617 25.3547 14.9777 25.392C14.9963 25.4267 14.995 25.4653 14.9737 25.508C14.827 25.7907 14.691 26.028 14.5657 26.22C14.443 26.412 14.327 26.5653 14.2177 26.68C14.111 26.7947 14.011 26.8787 13.9177 26.932C13.8217 26.9827 13.7337 27.008 13.6537 27.008ZM15.0015 27.068C14.8735 27.068 14.7681 27.0413 14.6855 26.988C14.6028 26.9347 14.5415 26.8627 14.5015 26.772C14.4615 26.6813 14.4428 26.5787 14.4455 26.464C14.4508 26.3467 14.4735 26.2253 14.5135 26.1L14.7735 25.32H14.4655C14.4361 25.32 14.4161 25.3067 14.4055 25.28C14.3948 25.2533 14.3961 25.2133 14.4095 25.16C14.4255 25.1067 14.4468 25.0667 14.4735 25.04C14.5001 25.0133 14.5268 25 14.5535 25H14.8775L15.1375 24.208C15.1535 24.1547 15.1735 24.12 15.1975 24.104C15.2241 24.088 15.2641 24.08 15.3175 24.08C15.4001 24.08 15.4521 24.0933 15.4735 24.12C15.4975 24.144 15.5001 24.1827 15.4815 24.236L15.2295 25H15.7335C15.7628 25 15.7828 25.0133 15.7935 25.04C15.8068 25.064 15.8055 25.104 15.7895 25.16C15.7761 25.2107 15.7561 25.2507 15.7295 25.28C15.7028 25.3067 15.6748 25.32 15.6455 25.32H15.1255L14.8575 26.136C14.8201 26.2427 14.8001 26.336 14.7975 26.416C14.7948 26.496 14.8041 26.5627 14.8255 26.616C14.8495 26.6667 14.8841 26.7053 14.9295 26.732C14.9748 26.756 15.0268 26.768 15.0855 26.768C15.1228 26.768 15.1495 26.784 15.1655 26.816C15.1841 26.8453 15.1908 26.88 15.1855 26.92C15.1801 26.9573 15.1615 26.9907 15.1295 27.02C15.1001 27.052 15.0575 27.068 15.0015 27.068ZM15.0163 27.068C14.9657 27.068 14.9323 27.052 14.9163 27.02C14.9003 26.9907 14.8977 26.9573 14.9083 26.92C14.9163 26.88 14.9363 26.8453 14.9683 26.816C15.0003 26.784 15.0417 26.768 15.0923 26.768C15.1723 26.768 15.2577 26.7373 15.3483 26.676C15.439 26.6147 15.543 26.516 15.6603 26.38C15.7777 26.244 15.9137 26.0627 16.0683 25.836C16.2257 25.6093 16.407 25.3307 16.6123 25C16.6337 24.9653 16.663 24.952 16.7003 24.96C16.7403 24.9653 16.7723 24.9827 16.7963 25.012C16.823 25.0413 16.8257 25.0733 16.8043 25.108C16.599 25.476 16.4137 25.7853 16.2483 26.036C16.083 26.2867 15.931 26.488 15.7923 26.64C15.6563 26.7893 15.527 26.8987 15.4043 26.968C15.279 27.0347 15.1497 27.068 15.0163 27.068ZM17.2203 27.068C17.1669 27.068 17.1123 27.0627 17.0563 27.052C17.0003 27.044 16.9389 27.0387 16.8723 27.036C16.8083 27.0333 16.7349 27.04 16.6523 27.056L16.7243 26.956C16.8176 26.916 16.9016 26.8827 16.9763 26.856C17.0509 26.8267 17.1163 26.8053 17.1723 26.792C17.2283 26.776 17.2709 26.768 17.3003 26.768C17.3243 26.768 17.3389 26.784 17.3443 26.816C17.3523 26.8453 17.3523 26.88 17.3443 26.92C17.3389 26.9573 17.3243 26.9907 17.3003 27.02C17.2789 27.052 17.2523 27.068 17.2203 27.068ZM16.5483 27.076C16.4176 27.076 16.3003 27.0547 16.1963 27.012C16.0923 26.972 16.0189 26.9293 15.9763 26.884C15.9416 26.8467 15.9243 26.8133 15.9243 26.784C15.9269 26.752 15.9456 26.7187 15.9803 26.684C16.0123 26.652 16.0403 26.6373 16.0643 26.64C16.0909 26.64 16.1256 26.6547 16.1683 26.684C16.2109 26.7107 16.2643 26.7373 16.3283 26.764C16.3923 26.788 16.4616 26.8 16.5363 26.8C16.6749 26.8 16.7803 26.7667 16.8523 26.7C16.9269 26.6307 16.9643 26.5347 16.9643 26.412C16.9643 26.3453 16.9536 26.2773 16.9323 26.208C16.9109 26.1387 16.8816 26.0693 16.8443 26C16.8096 25.928 16.7723 25.856 16.7323 25.784C16.6949 25.712 16.6576 25.6387 16.6203 25.564C16.5856 25.4867 16.5563 25.4093 16.5323 25.332C16.5109 25.2547 16.5003 25.1747 16.5003 25.092C16.5003 24.9453 16.5309 24.84 16.5923 24.776C16.6536 24.7093 16.7256 24.676 16.8083 24.676C16.8696 24.676 16.9163 24.6933 16.9483 24.728C16.9803 24.76 16.9963 24.8013 16.9963 24.852C16.9963 24.9027 16.9776 24.9573 16.9403 25.016C16.9029 25.0747 16.8589 25.1347 16.8083 25.196C16.8083 25.2573 16.8203 25.3187 16.8443 25.38C16.8683 25.4413 16.8989 25.5053 16.9363 25.572C16.9763 25.636 17.0176 25.7013 17.0603 25.768C17.1029 25.832 17.1429 25.9 17.1803 25.972C17.2203 26.0413 17.2523 26.1133 17.2763 26.188C17.3003 26.2627 17.3123 26.34 17.3123 26.42C17.3123 26.6227 17.2429 26.7827 17.1043 26.9C16.9683 27.0173 16.7829 27.076 16.5483 27.076ZM17.2195 27.068C17.1688 27.068 17.1355 27.052 17.1195 27.02C17.1008 26.9907 17.0968 26.9573 17.1075 26.92C17.1181 26.88 17.1395 26.8453 17.1715 26.816C17.2035 26.784 17.2448 26.768 17.2955 26.768C17.3488 26.768 17.4115 26.744 17.4835 26.696C17.5528 26.6453 17.6381 26.5653 17.7395 26.456C17.8381 26.3467 17.9555 26.204 18.0915 26.028C18.2275 25.8493 18.3875 25.6333 18.5715 25.38C18.6008 25.3373 18.6328 25.3213 18.6675 25.332C18.7021 25.34 18.7261 25.364 18.7395 25.404C18.7555 25.4413 18.7475 25.4827 18.7155 25.528C18.5128 25.8267 18.3355 26.076 18.1835 26.276C18.0341 26.4733 17.9035 26.6307 17.7915 26.748C17.6768 26.8627 17.5741 26.9453 17.4835 26.996C17.3928 27.044 17.3048 27.068 17.2195 27.068ZM19.9235 27.068C19.8115 27.068 19.7248 27.0467 19.6635 27.004C19.6048 26.964 19.5661 26.912 19.5475 26.848C19.5288 26.7813 19.5235 26.7093 19.5315 26.632C19.5395 26.552 19.5568 26.476 19.5835 26.404L19.8475 25.624C19.8741 25.552 19.8875 25.488 19.8875 25.432C19.8901 25.3733 19.8755 25.328 19.8435 25.296C19.8141 25.2613 19.7621 25.244 19.6875 25.244C19.5995 25.244 19.5035 25.2773 19.3995 25.344C19.2955 25.4107 19.1901 25.5053 19.0835 25.628C18.9768 25.7507 18.8715 25.896 18.7675 26.064C18.6661 26.2293 18.5728 26.412 18.4875 26.612L18.4635 26.28C18.5648 26.064 18.6688 25.872 18.7755 25.704C18.8848 25.536 18.9968 25.3947 19.1115 25.28C19.2261 25.1627 19.3421 25.0747 19.4595 25.016C19.5768 24.9547 19.6955 24.924 19.8155 24.924C19.9488 24.924 20.0501 24.956 20.1195 25.02C20.1915 25.0813 20.2315 25.172 20.2395 25.292C20.2475 25.412 20.2221 25.5573 20.1635 25.728L19.9355 26.412C19.8875 26.548 19.8688 26.6413 19.8795 26.692C19.8901 26.7427 19.9315 26.768 20.0035 26.768C20.0408 26.768 20.0675 26.784 20.0835 26.816C20.1021 26.8453 20.1088 26.88 20.1035 26.92C20.0981 26.9573 20.0808 26.9907 20.0515 27.02C20.0221 27.052 19.9795 27.068 19.9235 27.068ZM18.1915 27.06C18.1488 27.06 18.1088 27.0507 18.0715 27.032C18.0341 27.0133 18.0235 26.9787 18.0395 26.928L19.1075 23.652C19.1981 23.364 19.3021 23.156 19.4195 23.028C19.5368 22.8973 19.6781 22.832 19.8435 22.832C19.9341 22.832 20.0101 22.852 20.0715 22.892C20.1355 22.932 20.1848 22.988 20.2195 23.06C20.2568 23.132 20.2755 23.2173 20.2755 23.316C20.2755 23.3933 20.2635 23.4773 20.2395 23.568C20.2181 23.656 20.1861 23.7493 20.1435 23.848C20.1008 23.9467 20.0488 24.0493 19.9875 24.156C19.9261 24.26 19.8555 24.3667 19.7755 24.476C19.6981 24.5853 19.6115 24.696 19.5155 24.808C19.4221 24.9173 19.3208 25.028 19.2115 25.14C19.1021 25.2493 18.9875 25.3573 18.8675 25.464L18.3795 26.956C18.3688 26.9907 18.3501 27.016 18.3235 27.032C18.2968 27.0507 18.2528 27.06 18.1915 27.06ZM19.0115 25.012C19.0995 24.916 19.1835 24.8187 19.2635 24.72C19.3435 24.6213 19.4168 24.5213 19.4835 24.42C19.5528 24.3187 19.6155 24.2187 19.6715 24.12C19.7275 24.0213 19.7755 23.9267 19.8155 23.836C19.8555 23.7427 19.8861 23.6547 19.9075 23.572C19.9288 23.4867 19.9395 23.4093 19.9395 23.34C19.9395 23.3027 19.9328 23.2707 19.9195 23.244C19.9088 23.2147 19.8928 23.1933 19.8715 23.18C19.8528 23.164 19.8275 23.156 19.7955 23.156C19.7528 23.156 19.7128 23.172 19.6755 23.204C19.6408 23.236 19.6035 23.2947 19.5635 23.38C19.5235 23.4627 19.4795 23.5787 19.4315 23.728L19.0115 25.012ZM19.9226 27.068C19.8853 27.068 19.8573 27.052 19.8386 27.02C19.8199 26.9907 19.8133 26.9573 19.8186 26.92C19.8239 26.88 19.8413 26.8453 19.8706 26.816C19.8999 26.784 19.9426 26.768 19.9986 26.768C20.0573 26.768 20.1253 26.7547 20.2026 26.728C20.2773 26.6987 20.3706 26.6547 20.4826 26.596C20.5919 26.5373 20.7253 26.4587 20.8826 26.36C20.9173 26.3387 20.9493 26.3347 20.9786 26.348C21.0079 26.3587 21.0293 26.38 21.0426 26.412C21.0559 26.444 21.0586 26.4787 21.0506 26.516C21.0453 26.5533 21.0239 26.584 20.9866 26.608C20.8106 26.72 20.6586 26.8107 20.5306 26.88C20.4026 26.9467 20.2906 26.9947 20.1946 27.024C20.0986 27.0533 20.0079 27.068 19.9226 27.068ZM21.0186 26.316C21.1279 26.252 21.2399 26.1813 21.3546 26.104C21.4693 26.0267 21.5746 25.9467 21.6706 25.864C21.7693 25.7813 21.8493 25.7013 21.9106 25.624C21.9719 25.544 22.0026 25.4693 22.0026 25.4C22.0026 25.3413 21.9866 25.3 21.9546 25.276C21.9226 25.252 21.8813 25.24 21.8306 25.24C21.7213 25.24 21.6239 25.2747 21.5386 25.344C21.4533 25.4107 21.3799 25.496 21.3186 25.6C21.2599 25.7013 21.2146 25.808 21.1826 25.92C21.1506 26.032 21.1346 26.1307 21.1346 26.216C21.1346 26.304 21.1439 26.3827 21.1626 26.452C21.1839 26.5187 21.2146 26.5747 21.2546 26.62C21.2946 26.6653 21.3439 26.7 21.4026 26.724C21.4613 26.748 21.5293 26.76 21.6066 26.76C21.6439 26.76 21.6693 26.776 21.6826 26.808C21.6986 26.8373 21.7039 26.8733 21.6986 26.916C21.6933 26.956 21.6786 26.9907 21.6546 27.02C21.6306 27.052 21.5986 27.068 21.5586 27.068C21.3799 27.068 21.2319 27.0333 21.1146 26.964C20.9999 26.8947 20.9146 26.7973 20.8586 26.672C20.8026 26.5467 20.7746 26.4013 20.7746 26.236C20.7746 26.1053 20.7986 25.9653 20.8466 25.816C20.8973 25.664 20.9693 25.5213 21.0626 25.388C21.1586 25.252 21.2746 25.1413 21.4106 25.056C21.5493 24.968 21.7079 24.924 21.8866 24.924C21.9826 24.924 22.0653 24.9413 22.1346 24.976C22.2066 25.008 22.2626 25.056 22.3026 25.12C22.3426 25.184 22.3626 25.2613 22.3626 25.352C22.3626 25.456 22.3319 25.5587 22.2706 25.66C22.2119 25.7613 22.1279 25.8627 22.0186 25.964C21.9093 26.0653 21.7786 26.168 21.6266 26.272C21.4773 26.3733 21.3119 26.4773 21.1306 26.584L21.0186 26.316ZM21.5438 27.068C21.5171 27.068 21.4998 27.052 21.4918 27.02C21.4838 26.9907 21.4825 26.956 21.4878 26.916C21.4931 26.8733 21.5051 26.8373 21.5238 26.808C21.5425 26.776 21.5665 26.76 21.5958 26.76C21.8011 26.76 22.0078 26.7293 22.2158 26.668C22.4238 26.604 22.6425 26.4987 22.8718 26.352L22.9638 26.616C22.7851 26.7307 22.6171 26.8213 22.4598 26.888C22.3025 26.952 22.1491 26.9973 21.9998 27.024C21.8505 27.0533 21.6985 27.068 21.5438 27.068ZM22.9717 26.316C23.0811 26.252 23.1931 26.1813 23.3077 26.104C23.4224 26.0267 23.5277 25.9467 23.6237 25.864C23.7224 25.7813 23.8024 25.7013 23.8637 25.624C23.9251 25.544 23.9557 25.4693 23.9557 25.4C23.9557 25.3413 23.9397 25.3 23.9077 25.276C23.8757 25.252 23.8344 25.24 23.7837 25.24C23.6744 25.24 23.5771 25.2747 23.4917 25.344C23.4064 25.4107 23.3331 25.496 23.2717 25.6C23.2131 25.7013 23.1677 25.808 23.1357 25.92C23.1037 26.032 23.0877 26.1307 23.0877 26.216C23.0877 26.304 23.0971 26.3827 23.1157 26.452C23.1371 26.5187 23.1677 26.5747 23.2077 26.62C23.2477 26.6653 23.2971 26.7 23.3557 26.724C23.4144 26.748 23.4824 26.76 23.5597 26.76C23.5971 26.76 23.6224 26.776 23.6357 26.808C23.6517 26.8373 23.6571 26.8733 23.6517 26.916C23.6464 26.956 23.6317 26.9907 23.6077 27.02C23.5837 27.052 23.5517 27.068 23.5117 27.068C23.3331 27.068 23.1851 27.0333 23.0677 26.964C22.9531 26.8947 22.8677 26.7973 22.8117 26.672C22.7557 26.5467 22.7277 26.4013 22.7277 26.236C22.7277 26.1053 22.7517 25.9653 22.7997 25.816C22.8504 25.664 22.9224 25.5213 23.0157 25.388C23.1117 25.252 23.2277 25.1413 23.3637 25.056C23.5024 24.968 23.6611 24.924 23.8397 24.924C23.9357 24.924 24.0184 24.9413 24.0877 24.976C24.1597 25.008 24.2157 25.056 24.2557 25.12C24.2957 25.184 24.3157 25.2613 24.3157 25.352C24.3157 25.456 24.2851 25.5587 24.2237 25.66C24.1651 25.7613 24.0811 25.8627 23.9717 25.964C23.8624 26.0653 23.7317 26.168 23.5797 26.272C23.4304 26.3733 23.2651 26.4773 23.0837 26.584L22.9717 26.316ZM23.4969 27.068C23.4729 27.068 23.4569 27.052 23.4489 27.02C23.4383 26.9907 23.4356 26.956 23.4409 26.916C23.4436 26.8733 23.4556 26.8373 23.4769 26.808C23.4956 26.776 23.5196 26.76 23.5489 26.76C23.6636 26.76 23.7796 26.7373 23.8969 26.692C24.0143 26.644 24.1383 26.568 24.2689 26.464C24.3969 26.36 24.5356 26.2227 24.6849 26.052C24.8343 25.8813 24.9983 25.672 25.1769 25.424C25.2009 25.3973 25.2289 25.3893 25.2609 25.4C25.2956 25.408 25.3236 25.4253 25.3449 25.452C25.3689 25.476 25.3729 25.5 25.3569 25.524C25.1729 25.7987 25.0009 26.0347 24.8409 26.232C24.6836 26.4267 24.5329 26.5853 24.3889 26.708C24.2423 26.8307 24.0969 26.9213 23.9529 26.98C23.8063 27.0387 23.6543 27.068 23.4969 27.068ZM25.0968 27.06C24.9795 27.06 24.8902 27.0333 24.8288 26.98C24.7675 26.924 24.7342 26.8453 24.7288 26.744C24.7235 26.64 24.7435 26.5173 24.7888 26.376L25.1328 25.32H24.8248C24.7955 25.32 24.7755 25.3067 24.7648 25.28C24.7542 25.2533 24.7555 25.2133 24.7688 25.16C24.7848 25.1067 24.8062 25.0667 24.8328 25.04C24.8595 25.0133 24.8875 25 24.9168 25H25.2368L25.4968 24.208C25.5128 24.1547 25.5328 24.12 25.5568 24.104C25.5835 24.088 25.6235 24.08 25.6768 24.08C25.7595 24.08 25.8115 24.0933 25.8328 24.12C25.8568 24.144 25.8595 24.1827 25.8408 24.236L25.5888 25H26.0928C26.1222 25 26.1422 25.0133 26.1528 25.04C26.1662 25.064 26.1648 25.104 26.1488 25.16C26.1355 25.2107 26.1155 25.2507 26.0888 25.28C26.0622 25.3067 26.0342 25.32 26.0048 25.32H25.4848L25.0968 26.496C25.0675 26.5867 25.0595 26.6533 25.0728 26.696C25.0862 26.7387 25.1182 26.76 25.1688 26.76C25.2328 26.76 25.2995 26.736 25.3688 26.688C25.4382 26.6373 25.5062 26.5693 25.5728 26.484C25.5942 26.46 25.6168 26.4453 25.6408 26.44C25.6675 26.4347 25.7008 26.4453 25.7408 26.472C25.7808 26.496 25.8035 26.5213 25.8088 26.548C25.8142 26.572 25.8102 26.596 25.7968 26.62C25.7675 26.6733 25.7195 26.7347 25.6528 26.804C25.5888 26.8733 25.5102 26.9333 25.4168 26.984C25.3262 27.0347 25.2195 27.06 25.0968 27.06Z"
      fill="black" />
    <rect x="1" y="1" width="32" height="48" fill="#181616" fill-opacity="0.25" />
    <rect width="32" height="48" transform="matrix(-1 0 0 1 65 1)" fill="#C5C9C5" />
    <path
      d="M37.076 27.068C36.932 27.068 36.816 27.0227 36.728 26.932C36.64 26.8387 36.596 26.7173 36.596 26.568C36.596 26.464 36.6107 26.3627 36.64 26.264C36.672 26.1627 36.7147 26.0627 36.768 25.964C36.8213 25.8627 36.8813 25.764 36.948 25.668C36.9747 25.636 37.004 25.616 37.036 25.608C37.0707 25.6 37.1107 25.6107 37.156 25.64C37.204 25.6693 37.232 25.7 37.24 25.732C37.2507 25.764 37.2427 25.7987 37.216 25.836C37.1707 25.908 37.1267 25.9853 37.084 26.068C37.0413 26.148 37.0067 26.228 36.98 26.308C36.956 26.388 36.944 26.4613 36.944 26.528C36.944 26.5893 36.9587 26.6413 36.988 26.684C37.0173 26.7267 37.0653 26.748 37.132 26.748C37.1773 26.748 37.2267 26.7333 37.28 26.704C37.3333 26.6747 37.392 26.6253 37.456 26.556C37.52 26.484 37.5933 26.3867 37.676 26.264C37.7613 26.1413 37.8573 25.9867 37.964 25.8C38.0733 25.6133 38.196 25.3893 38.332 25.128C38.4707 24.8667 38.628 24.564 38.804 24.22C38.9827 23.8733 39.1827 23.4773 39.404 23.032C39.4387 22.9653 39.476 22.9213 39.516 22.9C39.556 22.876 39.6053 22.864 39.664 22.864C39.7307 22.864 39.7827 22.8773 39.82 22.904C39.86 22.928 39.8733 22.9773 39.86 23.052C39.8173 23.3213 39.7787 23.5947 39.744 23.872C39.7093 24.1493 39.68 24.4307 39.656 24.716C39.6347 24.9987 39.616 25.2867 39.6 25.58C39.5867 25.8707 39.576 26.1667 39.568 26.468L41.672 23.02C41.712 22.956 41.7507 22.9147 41.788 22.896C41.828 22.8747 41.8747 22.864 41.928 22.864C42 22.864 42.0533 22.876 42.088 22.9C42.1253 22.924 42.136 22.9733 42.12 23.048C42.0053 23.52 41.908 23.9373 41.828 24.3C41.748 24.66 41.6827 24.972 41.632 25.236C41.584 25.5 41.5467 25.7227 41.52 25.904C41.496 26.0853 41.4827 26.2333 41.48 26.348C41.48 26.46 41.488 26.5467 41.504 26.608C41.52 26.6693 41.544 26.712 41.576 26.736C41.608 26.7573 41.6467 26.768 41.692 26.768C41.7427 26.768 41.776 26.784 41.792 26.816C41.808 26.8453 41.8107 26.88 41.8 26.92C41.7893 26.9573 41.768 26.9907 41.736 27.02C41.704 27.052 41.6627 27.068 41.612 27.068C41.5347 27.068 41.4653 27.056 41.404 27.032C41.3427 27.008 41.2907 26.9667 41.248 26.908C41.208 26.8467 41.1787 26.7627 41.16 26.656C41.144 26.5467 41.14 26.408 41.148 26.24C41.156 26.072 41.1787 25.8693 41.216 25.632C41.2533 25.392 41.3053 25.1133 41.372 24.796C41.4413 24.476 41.5267 24.108 41.628 23.692L39.664 26.908C39.624 26.972 39.5853 27.0147 39.548 27.036C39.5133 27.0573 39.4693 27.068 39.416 27.068C39.3467 27.068 39.2987 27.0547 39.272 27.028C39.248 27.004 39.236 26.9547 39.236 26.88C39.244 26.5333 39.2547 26.1813 39.268 25.824C39.2813 25.4667 39.3027 25.1067 39.332 24.744C39.3613 24.3813 39.4 24.0213 39.448 23.664C39.2427 24.08 39.0587 24.4493 38.896 24.772C38.7333 25.0947 38.5867 25.376 38.456 25.616C38.3253 25.856 38.2067 26.06 38.1 26.228C37.9933 26.396 37.8947 26.536 37.804 26.648C37.716 26.7573 37.632 26.8427 37.552 26.904C37.4747 26.9653 37.3973 27.008 37.32 27.032C37.2427 27.056 37.1613 27.068 37.076 27.068ZM41.6101 27.068C41.5728 27.068 41.5448 27.052 41.5261 27.02C41.5074 26.9907 41.5008 26.9573 41.5061 26.92C41.5114 26.88 41.5288 26.8453 41.5581 26.816C41.5874 26.784 41.6301 26.768 41.6861 26.768C41.7554 26.768 41.8288 26.7467 41.9061 26.704C41.9808 26.6587 42.0568 26.5973 42.1341 26.52C42.2114 26.44 42.2874 26.3453 42.3621 26.236C42.4394 26.1267 42.5154 26.008 42.5901 25.88C42.6088 25.8427 42.6354 25.8267 42.6701 25.832C42.7074 25.8347 42.7381 25.8507 42.7621 25.88C42.7861 25.9067 42.7888 25.9373 42.7701 25.972C42.6794 26.1507 42.5874 26.3093 42.4941 26.448C42.4008 26.584 42.3061 26.6987 42.2101 26.792C42.1141 26.8827 42.0168 26.952 41.9181 27C41.8194 27.0453 41.7168 27.068 41.6101 27.068ZM42.9379 27.068C42.8392 27.068 42.7539 27.044 42.6819 26.996C42.6099 26.9453 42.5539 26.8747 42.5139 26.784C42.4739 26.6907 42.4539 26.5827 42.4539 26.46C42.4539 26.3373 42.4712 26.2067 42.5059 26.068C42.5432 25.9293 42.5979 25.7933 42.6699 25.66C42.7419 25.524 42.8299 25.4013 42.9339 25.292C43.0406 25.18 43.1632 25.0907 43.3019 25.024C43.4432 24.9573 43.5992 24.924 43.7699 24.924C43.8766 24.924 43.9872 24.944 44.1019 24.984C44.2166 25.0213 44.3192 25.072 44.4099 25.136L44.3459 25.412C44.2206 25.3427 44.1086 25.2973 44.0099 25.276C43.9139 25.252 43.8219 25.24 43.7339 25.24C43.6139 25.24 43.5046 25.2667 43.4059 25.32C43.3099 25.3707 43.2246 25.44 43.1499 25.528C43.0779 25.6133 43.0166 25.708 42.9659 25.812C42.9179 25.916 42.8806 26.02 42.8539 26.124C42.8299 26.2253 42.8179 26.3173 42.8179 26.4C42.8179 26.472 42.8272 26.5347 42.8459 26.588C42.8646 26.6387 42.8912 26.6787 42.9259 26.708C42.9606 26.7347 43.0032 26.748 43.0539 26.748C43.1499 26.748 43.2552 26.7013 43.3699 26.608C43.4872 26.512 43.6099 26.3733 43.7379 26.192C43.8686 26.008 43.9979 25.7867 44.1259 25.528L44.2539 25.688C44.0992 26.0107 43.9432 26.2733 43.7859 26.476C43.6312 26.6787 43.4819 26.828 43.3379 26.924C43.1939 27.02 43.0606 27.068 42.9379 27.068ZM44.1579 27.068C44.0432 27.068 43.9552 27.0467 43.8939 27.004C43.8352 26.964 43.7952 26.912 43.7739 26.848C43.7552 26.7813 43.7499 26.7093 43.7579 26.632C43.7686 26.552 43.7872 26.476 43.8139 26.404L44.2579 25.068C44.2766 25.0147 44.2979 24.98 44.3219 24.964C44.3486 24.948 44.3872 24.94 44.4379 24.94C44.5206 24.94 44.5726 24.9533 44.5939 24.98C44.6179 25.004 44.6206 25.0427 44.6019 25.096L44.1619 26.412C44.1192 26.548 44.1032 26.6413 44.1139 26.692C44.1246 26.7427 44.1646 26.768 44.2339 26.768C44.2712 26.768 44.2979 26.784 44.3139 26.816C44.3326 26.8453 44.3392 26.88 44.3339 26.92C44.3286 26.9573 44.3112 26.9907 44.2819 27.02C44.2552 27.052 44.2139 27.068 44.1579 27.068ZM44.157 27.068C44.1063 27.068 44.073 27.052 44.057 27.02C44.0383 26.9907 44.0343 26.9573 44.045 26.92C44.0556 26.88 44.077 26.8453 44.109 26.816C44.141 26.784 44.1823 26.768 44.233 26.768C44.337 26.768 44.445 26.7307 44.557 26.656C44.6663 26.5813 44.7783 26.476 44.893 26.34C45.0076 26.204 45.121 26.044 45.233 25.86C45.3476 25.676 45.457 25.4747 45.561 25.256C45.5743 25.2267 45.5983 25.208 45.633 25.2C45.6676 25.1893 45.7023 25.188 45.737 25.196C45.7716 25.2013 45.797 25.2147 45.813 25.236C45.8316 25.2573 45.8316 25.2867 45.813 25.324C45.685 25.5827 45.5583 25.8187 45.433 26.032C45.3103 26.2453 45.1836 26.4293 45.053 26.584C44.925 26.7387 44.7876 26.8587 44.641 26.944C44.4943 27.0267 44.333 27.068 44.157 27.068ZM46.425 27.068C46.313 27.068 46.2276 27.048 46.169 27.008C46.113 26.968 46.0743 26.916 46.053 26.852C46.0316 26.788 46.025 26.72 46.033 26.648C46.041 26.576 46.0556 26.508 46.077 26.444C46.0876 26.4067 46.1076 26.352 46.137 26.28C46.169 26.2053 46.2036 26.1227 46.241 26.032C46.281 25.9413 46.3183 25.8493 46.353 25.756C46.3903 25.66 46.421 25.572 46.445 25.492C46.4663 25.4147 46.469 25.3613 46.453 25.332C46.437 25.3027 46.4036 25.288 46.353 25.288C46.2916 25.288 46.225 25.296 46.153 25.312C46.0836 25.3253 46.013 25.3427 45.941 25.364C45.8716 25.3853 45.805 25.404 45.741 25.42C45.6796 25.4333 45.6263 25.44 45.581 25.44C45.4636 25.44 45.3663 25.4187 45.289 25.376C45.2143 25.3333 45.157 25.2787 45.117 25.212C45.0796 25.1453 45.061 25.076 45.061 25.004C45.061 24.8813 45.097 24.7813 45.169 24.704C45.2436 24.6267 45.3436 24.588 45.469 24.588C45.565 24.588 45.641 24.6133 45.697 24.664C45.7556 24.7147 45.793 24.7813 45.809 24.864C45.825 24.944 45.817 25.0307 45.785 25.124C45.809 25.124 45.8476 25.116 45.901 25.1C45.957 25.0813 46.0196 25.06 46.089 25.036C46.161 25.012 46.2343 24.992 46.309 24.976C46.3836 24.9573 46.4516 24.948 46.513 24.948C46.5956 24.948 46.6623 24.968 46.713 25.008C46.7663 25.0453 46.7996 25.1053 46.813 25.188C46.8263 25.268 46.8156 25.3747 46.781 25.508C46.7623 25.5827 46.7343 25.668 46.697 25.764C46.6623 25.8573 46.625 25.952 46.585 26.048C46.5476 26.1413 46.513 26.228 46.481 26.308C46.449 26.3853 46.4263 26.4467 46.413 26.492C46.3863 26.5773 46.377 26.6453 46.385 26.696C46.3956 26.744 46.4356 26.768 46.505 26.768C46.5423 26.768 46.569 26.784 46.585 26.816C46.6036 26.8453 46.6103 26.88 46.605 26.92C46.5996 26.9573 46.5823 26.9907 46.553 27.02C46.5236 27.052 46.481 27.068 46.425 27.068ZM45.525 25.176C45.5463 25.112 45.5556 25.0533 45.553 25C45.553 24.9467 45.5436 24.904 45.525 24.872C45.5063 24.84 45.4756 24.824 45.433 24.824C45.393 24.824 45.3623 24.8373 45.341 24.864C45.3196 24.8907 45.309 24.9253 45.309 24.968C45.309 25.0293 45.3303 25.08 45.373 25.12C45.4156 25.1573 45.4663 25.176 45.525 25.176ZM46.4265 27.068C46.3758 27.068 46.3425 27.052 46.3265 27.02C46.3078 26.9907 46.3038 26.9573 46.3145 26.92C46.3252 26.88 46.3465 26.8453 46.3785 26.816C46.4105 26.784 46.4518 26.768 46.5025 26.768C46.5558 26.768 46.6185 26.744 46.6905 26.696C46.7598 26.6453 46.8452 26.5653 46.9465 26.456C47.0452 26.3467 47.1625 26.204 47.2985 26.028C47.4345 25.8493 47.5945 25.6333 47.7785 25.38C47.8078 25.3373 47.8398 25.3213 47.8745 25.332C47.9092 25.34 47.9332 25.364 47.9465 25.404C47.9625 25.4413 47.9545 25.4827 47.9225 25.528C47.7198 25.8267 47.5425 26.076 47.3905 26.276C47.2412 26.4733 47.1105 26.6307 46.9985 26.748C46.8838 26.8627 46.7812 26.9453 46.6905 26.996C46.5998 27.044 46.5118 27.068 46.4265 27.068ZM47.4024 27.06C47.3597 27.06 47.3197 27.0507 47.2824 27.032C47.2451 27.0133 47.2344 26.9787 47.2504 26.928L48.3184 23.652C48.3797 23.4573 48.4464 23.3 48.5184 23.18C48.5904 23.06 48.6704 22.972 48.7584 22.916C48.8464 22.86 48.9451 22.832 49.0544 22.832C49.1451 22.832 49.2211 22.852 49.2824 22.892C49.3464 22.932 49.3957 22.988 49.4304 23.06C49.4677 23.132 49.4864 23.2173 49.4864 23.316C49.4864 23.3987 49.4731 23.488 49.4464 23.584C49.4224 23.68 49.3851 23.78 49.3344 23.884C49.2864 23.988 49.2264 24.096 49.1544 24.208C49.0824 24.3173 48.9997 24.4293 48.9064 24.544C48.8157 24.656 48.7157 24.768 48.6064 24.88C48.4971 24.992 48.3797 25.1027 48.2544 25.212C48.1317 25.3187 48.0011 25.4227 47.8624 25.524L47.9104 25.252C48.0037 25.172 48.0944 25.0853 48.1824 24.992C48.2704 24.8987 48.3557 24.8027 48.4384 24.704C48.5211 24.6027 48.5984 24.5013 48.6704 24.4C48.7424 24.2987 48.8077 24.1987 48.8664 24.1C48.9251 24.0013 48.9744 23.9067 49.0144 23.816C49.0571 23.7227 49.0904 23.636 49.1144 23.556C49.1384 23.476 49.1504 23.404 49.1504 23.34C49.1504 23.3027 49.1437 23.2707 49.1304 23.244C49.1197 23.2147 49.1037 23.1933 49.0824 23.18C49.0637 23.164 49.0384 23.156 49.0064 23.156C48.9637 23.156 48.9237 23.172 48.8864 23.204C48.8517 23.236 48.8144 23.2947 48.7744 23.38C48.7371 23.4627 48.6931 23.5787 48.6424 23.728L47.5904 26.956C47.5797 26.9907 47.5611 27.016 47.5344 27.032C47.5077 27.0507 47.4637 27.06 47.4024 27.06ZM48.6824 27.068C48.6184 27.068 48.5531 27.0547 48.4864 27.028C48.4197 27.0013 48.3504 26.956 48.2784 26.892C48.2064 26.8253 48.1331 26.7347 48.0584 26.62C47.9864 26.5053 47.9131 26.36 47.8384 26.184H47.8024L47.8744 25.98C48.0184 25.948 48.1517 25.9093 48.2744 25.864C48.3997 25.816 48.5064 25.764 48.5944 25.708C48.6851 25.6493 48.7544 25.5907 48.8024 25.532C48.8531 25.4707 48.8784 25.4107 48.8784 25.352C48.8784 25.3173 48.8677 25.2907 48.8464 25.272C48.8277 25.2533 48.7997 25.244 48.7624 25.244C48.6851 25.244 48.5984 25.2773 48.5024 25.344C48.4064 25.408 48.3051 25.4973 48.1984 25.612C48.0917 25.7267 47.9824 25.8573 47.8704 26.004L47.8104 25.84C47.9064 25.656 48.0131 25.496 48.1304 25.36C48.2504 25.224 48.3744 25.1187 48.5024 25.044C48.6331 24.9667 48.7584 24.928 48.8784 24.928C48.9797 24.928 49.0611 24.9613 49.1224 25.028C49.1864 25.0947 49.2184 25.18 49.2184 25.284C49.2184 25.3613 49.2011 25.436 49.1664 25.508C49.1317 25.58 49.0837 25.6493 49.0224 25.716C48.9611 25.78 48.8864 25.84 48.7984 25.896C48.7131 25.952 48.6184 26.0027 48.5144 26.048C48.4104 26.0933 48.2997 26.1333 48.1824 26.168C48.2437 26.2933 48.3011 26.396 48.3544 26.476C48.4077 26.5533 48.4571 26.6133 48.5024 26.656C48.5504 26.6987 48.5957 26.728 48.6384 26.744C48.6837 26.76 48.7251 26.768 48.7624 26.768C48.8077 26.768 48.8384 26.784 48.8544 26.816C48.8704 26.8453 48.8731 26.88 48.8624 26.92C48.8544 26.9573 48.8344 26.9907 48.8024 27.02C48.7704 27.052 48.7304 27.068 48.6824 27.068ZM48.6882 27.068C48.6509 27.068 48.6229 27.052 48.6042 27.02C48.5856 26.9907 48.5789 26.9573 48.5842 26.92C48.5896 26.88 48.6069 26.8453 48.6362 26.816C48.6656 26.784 48.7082 26.768 48.7642 26.768C48.8336 26.768 48.9069 26.7467 48.9842 26.704C49.0589 26.6587 49.1349 26.5973 49.2122 26.52C49.2896 26.44 49.3656 26.3453 49.4402 26.236C49.5176 26.1267 49.5936 26.008 49.6682 25.88C49.6869 25.8427 49.7136 25.8267 49.7482 25.832C49.7856 25.8347 49.8162 25.8507 49.8402 25.88C49.8642 25.9067 49.8669 25.9373 49.8482 25.972C49.7576 26.1507 49.6656 26.3093 49.5722 26.448C49.4789 26.584 49.3842 26.6987 49.2882 26.792C49.1922 26.8827 49.0949 26.952 48.9962 27C48.8976 27.0453 48.7949 27.068 48.6882 27.068ZM49.9602 27.068C49.8616 27.068 49.7749 27.044 49.7002 26.996C49.6282 26.9453 49.5722 26.8747 49.5322 26.784C49.4922 26.6907 49.4722 26.5827 49.4722 26.46C49.4722 26.3373 49.4896 26.2067 49.5242 26.068C49.5616 25.9293 49.6162 25.7933 49.6882 25.66C49.7629 25.524 49.8522 25.4013 49.9562 25.292C50.0629 25.18 50.1856 25.0907 50.3242 25.024C50.4629 24.9573 50.6189 24.924 50.7922 24.924C50.8749 24.924 50.9589 24.936 51.0442 24.96C51.1322 24.9813 51.2162 25.0133 51.2962 25.056L51.9882 22.976C52.0042 22.9227 52.0242 22.888 52.0482 22.872C52.0749 22.856 52.1149 22.848 52.1682 22.848C52.2509 22.848 52.3029 22.8613 52.3242 22.888C52.3482 22.912 52.3509 22.9507 52.3322 23.004L51.2042 26.412C51.1616 26.548 51.1469 26.6413 51.1602 26.692C51.1762 26.7427 51.2322 26.768 51.3282 26.768C51.3549 26.768 51.3736 26.784 51.3842 26.816C51.3976 26.8453 51.4016 26.88 51.3962 26.92C51.3936 26.9573 51.3802 26.9907 51.3562 27.02C51.3322 27.052 51.2976 27.068 51.2522 27.068C51.1322 27.068 51.0402 27.0493 50.9762 27.012C50.9149 26.9747 50.8722 26.9267 50.8482 26.868C50.8242 26.8093 50.8136 26.7453 50.8162 26.676C50.8189 26.6067 50.8282 26.5413 50.8442 26.48L50.8482 26.448C50.7416 26.592 50.6349 26.7093 50.5282 26.8C50.4242 26.8907 50.3242 26.9573 50.2282 27C50.1322 27.0453 50.0429 27.068 49.9602 27.068ZM50.0722 26.748C50.1656 26.748 50.2669 26.7067 50.3762 26.624C50.4856 26.5413 50.6016 26.42 50.7242 26.26C50.8496 26.0973 50.9722 25.9013 51.0922 25.672L51.2082 25.336C51.1202 25.2987 51.0389 25.2733 50.9642 25.26C50.8896 25.2467 50.8202 25.24 50.7562 25.24C50.6362 25.24 50.5269 25.2667 50.4282 25.32C50.3296 25.3707 50.2429 25.44 50.1682 25.528C50.0962 25.6133 50.0349 25.708 49.9842 25.812C49.9362 25.916 49.8989 26.02 49.8722 26.124C49.8482 26.2253 49.8362 26.3173 49.8362 26.4C49.8362 26.472 49.8456 26.5347 49.8642 26.588C49.8829 26.6387 49.9096 26.6787 49.9442 26.708C49.9816 26.7347 50.0242 26.748 50.0722 26.748ZM51.2507 27.068C51.2134 27.068 51.1854 27.052 51.1667 27.02C51.1481 26.9907 51.1414 26.9573 51.1467 26.92C51.1521 26.88 51.1694 26.8453 51.1987 26.816C51.2281 26.784 51.2707 26.768 51.3267 26.768C51.3961 26.768 51.4694 26.7467 51.5467 26.704C51.6214 26.6587 51.6974 26.5973 51.7747 26.52C51.8521 26.44 51.9281 26.3453 52.0027 26.236C52.0801 26.1267 52.1561 26.008 52.2307 25.88C52.2494 25.8427 52.2761 25.8267 52.3107 25.832C52.3481 25.8347 52.3787 25.8507 52.4027 25.88C52.4267 25.9067 52.4294 25.9373 52.4107 25.972C52.3201 26.1507 52.2281 26.3093 52.1347 26.448C52.0414 26.584 51.9467 26.6987 51.8507 26.792C51.7547 26.8827 51.6574 26.952 51.5587 27C51.4601 27.0453 51.3574 27.068 51.2507 27.068ZM52.9027 27.076C52.7374 27.076 52.5974 27.0427 52.4827 26.976C52.3681 26.9093 52.2814 26.8173 52.2227 26.7C52.1667 26.58 52.1387 26.4453 52.1387 26.296C52.1387 26.1547 52.1641 26.0053 52.2147 25.848C52.2654 25.688 52.3401 25.5387 52.4387 25.4C52.5401 25.2587 52.6654 25.144 52.8147 25.056C52.9667 24.968 53.1427 24.924 53.3427 24.924C53.5081 24.924 53.6467 24.956 53.7587 25.02C53.8734 25.0813 53.9587 25.1693 54.0147 25.284C54.0734 25.396 54.1027 25.5267 54.1027 25.676C54.1027 25.7827 54.0867 25.9 54.0547 26.028C54.0254 26.1533 53.9787 26.2787 53.9147 26.404C53.8534 26.5267 53.7747 26.6387 53.6787 26.74C53.5827 26.8413 53.4694 26.9227 53.3387 26.984C53.2107 27.0453 53.0654 27.076 52.9027 27.076ZM52.9427 26.756C53.0734 26.756 53.1881 26.7213 53.2867 26.652C53.3854 26.5827 53.4681 26.4947 53.5347 26.388C53.6014 26.2787 53.6521 26.1653 53.6867 26.048C53.7214 25.928 53.7387 25.8173 53.7387 25.716C53.7387 25.612 53.7214 25.5253 53.6867 25.456C53.6521 25.3867 53.6027 25.3347 53.5387 25.3C53.4747 25.2627 53.3987 25.244 53.3107 25.244C53.1774 25.244 53.0601 25.2787 52.9587 25.348C52.8574 25.4147 52.7721 25.5013 52.7027 25.608C52.6361 25.7147 52.5854 25.8267 52.5507 25.944C52.5161 26.0613 52.4987 26.1693 52.4987 26.268C52.4987 26.372 52.5161 26.4613 52.5507 26.536C52.5881 26.608 52.6401 26.6627 52.7067 26.7C52.7734 26.7373 52.8521 26.756 52.9427 26.756ZM54.201 25.48C54.1556 25.48 54.1036 25.4733 54.045 25.46C53.9863 25.444 53.929 25.4227 53.873 25.396C53.817 25.3693 53.7703 25.3413 53.733 25.312C53.709 25.2933 53.6956 25.268 53.693 25.236C53.6876 25.2013 53.6916 25.168 53.705 25.136C53.7156 25.104 53.733 25.0813 53.757 25.068C53.781 25.052 53.8076 25.0547 53.837 25.076C53.9116 25.1267 53.981 25.16 54.045 25.176C54.1063 25.1893 54.1636 25.196 54.217 25.196C54.2943 25.196 54.365 25.1827 54.429 25.156C54.4956 25.1267 54.5583 25.096 54.617 25.064C54.6756 25.0293 54.7343 24.9987 54.793 24.972C54.8543 24.9427 54.917 24.928 54.981 24.928C55.0183 24.928 55.045 24.944 55.061 24.976C55.0796 25.0053 55.0863 25.04 55.081 25.08C55.0783 25.1173 55.0623 25.152 55.033 25.184C55.0036 25.2133 54.9596 25.228 54.901 25.228C54.8583 25.228 54.8116 25.2413 54.761 25.268C54.713 25.292 54.6596 25.3213 54.601 25.356C54.545 25.388 54.4836 25.4173 54.417 25.444C54.3503 25.468 54.2783 25.48 54.201 25.48ZM55.0811 27.076C54.9584 27.076 54.8624 27.0507 54.7931 27C54.7237 26.9493 54.6757 26.8813 54.6491 26.796C54.6251 26.7107 54.6184 26.616 54.6291 26.512C54.6397 26.4053 54.6637 26.2973 54.7011 26.188L54.9771 25.348C54.9877 25.3133 54.9877 25.2853 54.9771 25.264C54.9664 25.24 54.9424 25.228 54.9051 25.228C54.8704 25.228 54.8451 25.2133 54.8291 25.184C54.8157 25.152 54.8117 25.1173 54.8171 25.08C54.8251 25.04 54.8424 25.0053 54.8691 24.976C54.8984 24.944 54.9371 24.928 54.9851 24.928C55.0811 24.928 55.1544 24.9453 55.2051 24.98C55.2557 25.0147 55.2891 25.06 55.3051 25.116C55.3211 25.172 55.3251 25.2333 55.3171 25.3C55.3091 25.3667 55.2957 25.432 55.2771 25.496L55.0331 26.256C55.0064 26.3413 54.9877 26.4227 54.9771 26.5C54.9664 26.5747 54.9744 26.636 55.0011 26.684C55.0304 26.732 55.0877 26.756 55.1731 26.756C55.2451 26.756 55.3197 26.732 55.3971 26.684C55.4744 26.6333 55.5491 26.5653 55.6211 26.48C55.6957 26.3947 55.7637 26.2987 55.8251 26.192C55.8891 26.0853 55.9424 25.9747 55.9851 25.86L56.2451 25.064C56.2584 25.0213 56.2771 24.9893 56.3011 24.968C56.3251 24.9467 56.3664 24.936 56.4251 24.936C56.5131 24.936 56.5651 24.9493 56.5811 24.976C56.5971 25 56.5971 25.0373 56.5811 25.088L56.2531 26.152C56.2344 26.2053 56.2171 26.2667 56.2011 26.336C56.1877 26.4027 56.1824 26.4693 56.1851 26.536C56.1904 26.6 56.2091 26.6533 56.2411 26.696C56.2731 26.736 56.3291 26.756 56.4091 26.756C56.4917 26.756 56.5717 26.7333 56.6491 26.688C56.7291 26.6427 56.8024 26.5813 56.8691 26.504C56.9384 26.4267 56.9997 26.34 57.0531 26.244C57.1091 26.1453 57.1557 26.044 57.1931 25.94C57.2304 25.8333 57.2571 25.7307 57.2731 25.632C57.2784 25.592 57.2824 25.5547 57.2851 25.52C57.2904 25.4827 57.2931 25.448 57.2931 25.416C57.2397 25.3733 57.2011 25.3307 57.1771 25.288C57.1531 25.2427 57.1411 25.192 57.1411 25.136C57.1411 25.0747 57.1584 25.024 57.1931 24.984C57.2304 24.944 57.2837 24.924 57.3531 24.924C57.3984 24.924 57.4384 24.9347 57.4731 24.956C57.5077 24.9773 57.5357 25.0093 57.5571 25.052C57.5784 25.092 57.5944 25.1413 57.6051 25.2C57.6184 25.2587 57.6251 25.3253 57.6251 25.4C57.6251 25.5387 57.6051 25.684 57.5651 25.836C57.5251 25.988 57.4664 26.1373 57.3891 26.284C57.3144 26.4307 57.2237 26.564 57.1171 26.684C57.0104 26.804 56.8904 26.9 56.7571 26.972C56.6264 27.0413 56.4837 27.076 56.3291 27.076C56.2037 27.076 56.1037 27.052 56.0291 27.004C55.9571 26.9587 55.9051 26.8987 55.8731 26.824C55.8437 26.7467 55.8277 26.664 55.8251 26.576C55.7611 26.6773 55.6904 26.7667 55.6131 26.844C55.5357 26.9187 55.4531 26.976 55.3651 27.016C55.2771 27.056 55.1824 27.076 55.0811 27.076ZM57.6879 25.484C57.6293 25.484 57.5786 25.4787 57.5359 25.468C57.4906 25.4573 57.4533 25.4453 57.4239 25.432L57.4639 25.136C57.4959 25.1573 57.5333 25.176 57.5759 25.192C57.6186 25.208 57.6759 25.216 57.7479 25.216C57.8146 25.216 57.8826 25.2013 57.9519 25.172C58.0213 25.1427 58.0933 25.1093 58.1679 25.072C58.2426 25.0347 58.3186 25.0013 58.3959 24.972C58.4733 24.9427 58.5519 24.928 58.6319 24.928C58.6613 24.928 58.6799 24.944 58.6879 24.976C58.6986 25.0053 58.6999 25.04 58.6919 25.08C58.6839 25.1173 58.6679 25.152 58.6439 25.184C58.6199 25.2133 58.5866 25.228 58.5439 25.228C58.5013 25.228 58.4506 25.2413 58.3919 25.268C58.3333 25.292 58.2679 25.3213 58.1959 25.356C58.1239 25.388 58.0453 25.4173 57.9599 25.444C57.8746 25.4707 57.7839 25.484 57.6879 25.484ZM58.1638 27.06C58.1212 27.06 58.0812 27.0507 58.0438 27.032C58.0092 27.0133 57.9998 26.9787 58.0158 26.928L58.5278 25.348C58.5385 25.3133 58.5385 25.2853 58.5278 25.264C58.5172 25.24 58.4932 25.228 58.4558 25.228C58.4238 25.228 58.4012 25.2133 58.3878 25.184C58.3745 25.152 58.3705 25.1173 58.3758 25.08C58.3812 25.04 58.3972 25.0053 58.4238 24.976C58.4532 24.944 58.4905 24.928 58.5358 24.928C58.6265 24.928 58.6958 24.944 58.7438 24.976C58.7918 25.0053 58.8238 25.0467 58.8398 25.1C58.8585 25.1507 58.8652 25.2067 58.8598 25.268C58.8572 25.3267 58.8505 25.384 58.8398 25.44L58.7798 25.624C58.8572 25.512 58.9358 25.4133 59.0158 25.328C59.0985 25.24 59.1812 25.1667 59.2638 25.108C59.3492 25.0467 59.4345 25.0013 59.5198 24.972C59.6078 24.94 59.6945 24.924 59.7798 24.924C59.9132 24.924 60.0145 24.956 60.0838 25.02C60.1532 25.0813 60.1918 25.172 60.1998 25.292C60.2105 25.412 60.1865 25.5573 60.1278 25.728L59.8438 26.568C59.8305 26.6133 59.8225 26.6507 59.8198 26.68C59.8172 26.7067 59.8212 26.7267 59.8318 26.74C59.8425 26.7533 59.8598 26.76 59.8838 26.76C59.9132 26.76 59.9425 26.7507 59.9718 26.732C60.0012 26.7133 60.0305 26.688 60.0598 26.656C60.0918 26.624 60.1238 26.588 60.1558 26.548C60.1772 26.5213 60.1985 26.5053 60.2198 26.5C60.2438 26.4947 60.2732 26.504 60.3078 26.528C60.3505 26.5547 60.3745 26.5813 60.3798 26.608C60.3878 26.6347 60.3838 26.6627 60.3678 26.692C60.3438 26.732 60.3052 26.7827 60.2518 26.844C60.2012 26.9027 60.1385 26.9533 60.0638 26.996C59.9892 27.0387 59.9052 27.06 59.8118 27.06C59.7105 27.06 59.6345 27.0387 59.5838 26.996C59.5332 26.9533 59.5025 26.8987 59.4918 26.832C59.4812 26.7627 59.4825 26.6893 59.4958 26.612C59.5092 26.5347 59.5278 26.46 59.5518 26.388L59.8118 25.624C59.8385 25.552 59.8518 25.488 59.8518 25.432C59.8545 25.3733 59.8398 25.328 59.8078 25.296C59.7785 25.2613 59.7265 25.244 59.6518 25.244C59.5665 25.244 59.4732 25.276 59.3718 25.34C59.2705 25.404 59.1678 25.4947 59.0638 25.612C58.9625 25.7293 58.8612 25.8693 58.7598 26.032C58.6612 26.192 58.5692 26.3693 58.4838 26.564L58.3558 26.956C58.3452 26.9907 58.3252 27.016 58.2958 27.032C58.2692 27.0507 58.2252 27.06 58.1638 27.06Z"
      fill="black" />
    <rect x="34.875" y="2.875" width="28.25" height="4.25" stroke="#181616" stroke-opacity="0.75"
      stroke-width="0.25" />
    <rect x="34.875" y="10.875" width="28.25" height="4.25" stroke="#181616" stroke-opacity="0.75"
      stroke-width="0.25" />
    <rect x="34.875" y="32.875" width="28.25" height="4.25" stroke="#181616" stroke-opacity="0.75"
      stroke-width="0.25" />
    <rect x="34.875" y="40.875" width="28.25" height="4.25" stroke="#181616" stroke-opacity="0.75"
      stroke-width="0.25" />
    <g filter="url(#filter0_i_131_40)">
      <path
        d="M32.0433 22.6903C32.3466 22.5647 32.6717 22.5 33 22.5L33 27.5C32.6717 27.5 32.3466 27.4353 32.0433 27.3097C31.74 27.1841 31.4644 26.9999 31.2322 26.7678C31.0001 26.5356 30.8159 26.26 30.6903 25.9567C30.5647 25.6534 30.5 25.3283 30.5 25C30.5 24.6717 30.5647 24.3466 30.6903 24.0433C30.8159 23.74 31.0001 23.4644 31.2322 23.2322C31.4644 23.0001 31.74 22.8159 32.0433 22.6903Z"
        fill="#C5C9C5" />
    </g>
    <path d="M31.6 26L32.6 25L31.6 24" stroke="#181616" stroke-width="0.25" stroke-linecap="round"
      stroke-linejoin="round" />
  </g>
  <defs>
    <filter id="filter0_i_131_40" x="30.5" y="22.5" width="2.5" height="5"
      filterUnits="userSpaceOnUse" color-interpolation-filters="sRGB">
      <feFlood flood-opacity="0" result="BackgroundImageFix" />
      <feBlend mode="normal" in="SourceGraphic" in2="BackgroundImageFix" result="shape" />
      <feColorMatrix in="SourceAlpha" type="matrix"
        values="0 0 0 0 0 0 0 0 0 0 0 0 0 0 0 0 0 0 127 0" result="hardAlpha" />
      <feOffset dx="0.25" />
      <feComposite in2="hardAlpha" operator="arithmetic" k2="-1" k3="1" />
      <feColorMatrix type="matrix"
        values="0 0 0 0 0.0941176 0 0 0 0 0.0862745 0 0 0 0 0.0862745 0 0 0 0.75 0" />
      <feBlend mode="normal" in2="shape" result="effect1_innerShadow_131_40" />
    </filter>
  </defs>
</svg>